<?xml version="1.0" encoding="utf-8" ?><svg xmlns="http://www.w3.org/2000/svg" xmlns:xlink="http://www.w3.org/1999/xlink" width="4000" height="4000" viewBox="0 0 4000 4000"><path fill="#0B9E02" transform="matrix(3.90625 0 0 3.90625 0 0.00012207)" d="M245.397 114.584L243.851 113.745C244.694 111.701 260.27 109.3 263.575 108.757C308.469 101.376 356.04 105.065 398.09 123.126C430.973 137.218 454.237 160.836 475.158 188.948C472.67 200.06 472.543 230.151 473.257 241.629L474.488 243.924C475.002 245.423 476.767 258.975 476.793 260.909C477.565 264.494 478.2 266.57 479.374 270.062C487.45 276.315 489.141 276.894 496.017 284.737C498.638 284.053 501.365 283.27 504.022 282.81C506.236 282.862 506.325 282.848 508.497 282.394C514.355 282.779 519.256 283.05 525.06 284.003C530.27 277.575 535.122 270.43 540.69 264.301C551.05 252.898 562.833 242.15 574.766 232.4C579.076 228.878 584.315 226.25 587.779 221.876L587.277 225.094C560.967 243.638 546.369 260.245 526.603 284.672C532.202 286.639 534.825 287.757 539.801 290.997L539.349 291.664C530.001 285.534 524.571 284.461 513.703 284.107C492.534 280.977 474.282 297.989 470.256 317.887C466.749 330.103 467.705 336.027 471.84 347.542L470.53 347.872L468.676 342.54C457.797 346.1 450.338 345.507 439.946 341.051L438.58 340.982C434.503 338.166 419.344 326.201 421.246 320.989C420.318 318.324 419.255 316.071 420.067 313.428C419.982 312.316 419.317 309.057 419.097 307.794L418.48 311.523C417.376 306.332 417.73 301.629 418.684 296.488C412.143 294.401 404.761 291.294 397.994 288.94C384.044 284.088 371.648 281.643 357.488 278.163C358.741 275.06 362.107 269.917 363.979 266.912C359.42 269.961 355.085 273.332 351.007 277C340.515 276.526 328.222 274.855 316.891 274.244C315.476 268.226 325.049 257.345 328.267 252.281C325.647 252.815 324.708 255.003 323.045 255.748L306.559 272.023C293.351 269.241 280.125 266.551 266.88 263.952C259.29 262.481 251.299 261.269 243.86 259.393C248.06 252.616 254.055 246.72 258.766 240.209L229.833 253.701C210.131 251.251 197.392 248.753 176.491 247.7C168.574 247.387 160.112 247.841 152.104 247.9C153.948 244.761 156.38 242.91 159.196 240.706C168.261 233.499 177.815 226.928 187.787 221.04C221.823 201.264 263.417 187.067 302.853 184.098C317.945 182.962 330.043 186.016 344.654 187.789C342.586 184.805 339.118 182.316 336.554 179.119C331.026 175.571 322.344 167.301 315.117 162.38C325.409 160.631 330.451 159.656 340.295 156.18C330.253 153.434 317.469 150.195 307.901 146.225C300.039 142.962 290.826 135.796 283.249 131.476C276.106 127.404 268.2 124.204 261.085 120.283C257.185 119.255 250.372 116.083 245.397 114.584ZM364.816 191.994C367.033 191.316 371.807 189.884 373.446 188.346C365.099 187.238 358.716 187.431 350.369 188.169C353.632 189.967 361.072 191.262 364.816 191.994Z"/><path fill="#0B9E02" transform="matrix(3.90625 0 0 3.90625 0 0.00012207)" d="M245.397 114.584L243.851 113.745C244.694 111.701 260.27 109.3 263.575 108.757C308.469 101.376 356.04 105.065 398.09 123.126C430.973 137.218 454.237 160.836 475.158 188.948C472.67 200.06 472.543 230.151 473.257 241.629L474.488 243.924C475.002 245.423 476.767 258.975 476.793 260.909L475.743 262.315C476.398 264.787 477.01 267.981 477.567 270.532C468.684 259.181 455.647 244.926 444.989 235.518C439.66 230.813 415.531 213.292 409.548 211.861C407.83 211.245 402.821 208.072 400.996 206.957L401.022 206.319C403.189 206.075 404.325 205.872 406.445 205.359L406.697 204.839C403.557 203.647 400.565 205.217 396.623 203.853C385.86 200.129 375.742 195.358 364.816 191.994C367.033 191.316 371.807 189.884 373.446 188.346C365.099 187.238 358.716 187.431 350.369 188.169C348.27 187.926 346.531 188.634 344.654 187.789C342.586 184.805 339.118 182.316 336.554 179.119C331.026 175.571 322.344 167.301 315.117 162.38C325.409 160.631 330.451 159.656 340.295 156.18C330.253 153.434 317.469 150.195 307.901 146.225C300.039 142.962 290.826 135.796 283.249 131.476C276.106 127.404 268.2 124.204 261.085 120.283C257.185 119.255 250.372 116.083 245.397 114.584Z"/><path fill="#3DB641" transform="matrix(3.90625 0 0 3.90625 0 0.00012207)" d="M245.397 114.584L243.851 113.745C244.694 111.701 260.27 109.3 263.575 108.757C308.469 101.376 356.04 105.065 398.09 123.126C430.973 137.218 454.237 160.836 475.158 188.948C472.67 200.06 472.543 230.151 473.257 241.629L472.95 242.116C471.813 241.725 464.836 230.228 463.523 228.212C423.599 166.926 359.536 126.96 287.216 116.785C278.929 115.619 269.806 114.556 261.538 114.585C260.111 114.853 258.564 114.95 257.473 115.81L256.341 116.398C256.667 117.896 259.639 119.06 261.085 120.283C257.185 119.255 250.372 116.083 245.397 114.584Z"/><path fill="#095F0F" transform="matrix(3.90625 0 0 3.90625 0 0.00012207)" d="M245.397 114.584C250.991 114.4 255.953 114.465 261.538 114.585C260.111 114.853 258.564 114.95 257.473 115.81L256.341 116.398C256.667 117.896 259.639 119.06 261.085 120.283C257.185 119.255 250.372 116.083 245.397 114.584Z"/><path fill="#095F0F" transform="matrix(3.90625 0 0 3.90625 0 0.00012207)" d="M261.538 114.585C269.806 114.556 278.929 115.619 287.216 116.785C359.536 126.96 423.599 166.926 463.523 228.212C464.836 230.228 471.813 241.725 472.95 242.116L473.257 241.629L474.488 243.924C475.002 245.423 476.767 258.975 476.793 260.909L475.743 262.315C474.583 259.655 474.259 257.939 472.718 255.224C457.495 228.391 435.331 200.833 412.019 180.527C384.773 156.795 348.531 139.177 313.974 128.846C303.106 125.659 292.11 122.928 281.014 120.662C275.392 119.552 263.402 117.613 258.417 116.104L257.473 115.81C258.564 114.95 260.111 114.853 261.538 114.585Z"/><path fill="#064007" transform="matrix(3.90625 0 0 3.90625 0 0.00012207)" d="M336.554 179.119C339.265 180.324 343.878 186.039 345.013 186.232C348.032 186.745 354.125 186.477 357.494 186.495C365.692 186.595 373.876 187.203 381.998 188.315C379.926 188.927 376.096 188.491 373.903 188.163L373.446 188.346C365.099 187.238 358.716 187.431 350.369 188.169C348.27 187.926 346.531 188.634 344.654 187.789C342.586 184.805 339.118 182.316 336.554 179.119Z"/><path fill="#3DB641" transform="matrix(3.90625 0 0 3.90625 0 0.00012207)" d="M152.104 247.9C153.948 244.761 156.38 242.91 159.196 240.706C168.261 233.499 177.815 226.928 187.787 221.04C221.823 201.264 263.417 187.067 302.853 184.098C317.945 182.962 330.043 186.016 344.654 187.789C346.531 188.634 348.27 187.926 350.369 188.169C353.632 189.967 361.072 191.262 364.816 191.994C375.742 195.358 385.86 200.129 396.623 203.853C400.565 205.217 403.557 203.647 406.697 204.839L406.445 205.359C404.325 205.872 403.189 206.075 401.022 206.319L400.996 206.957C402.821 208.072 407.83 211.245 409.548 211.861C431.201 225.852 450.818 239.543 466.959 259.898C468.845 262.277 471.417 265.266 473.538 267.412C464.02 265.024 451.278 264.665 442.35 269.111C440.77 269.869 437.391 271.367 436.032 272.21C427.018 267.329 418.328 261.291 408.954 256.399C383.465 243.099 353.972 231.992 325.608 227.192C282.61 219.916 239.327 223.839 197.315 234.773C189.069 236.919 174.77 240.934 168.154 245.614L168.333 246.022C171.1 246.057 175.976 246.19 178.662 246.577L179.502 246.705C178.32 247.046 177.631 247.206 176.491 247.7C168.574 247.387 160.112 247.841 152.104 247.9Z"/><path fill="#0B6E15" transform="matrix(3.90625 0 0 3.90625 0 0.00012207)" d="M152.104 247.9C156.363 247.3 171.355 238.235 177.439 236.072C199.095 228.373 221.253 222.021 243.999 218.448C290.547 211.734 338.906 218.293 382.603 235.362C399.471 242.036 418.801 253.149 433.9 263.077C435.846 264.357 440.982 267.719 442.35 269.111C440.77 269.869 437.391 271.367 436.032 272.21C427.018 267.329 418.328 261.291 408.954 256.399C383.465 243.099 353.972 231.992 325.608 227.192C282.61 219.916 239.327 223.839 197.315 234.773C189.069 236.919 174.77 240.934 168.154 245.614L168.333 246.022C171.1 246.057 175.976 246.19 178.662 246.577L179.502 246.705C178.32 247.046 177.631 247.206 176.491 247.7C168.574 247.387 160.112 247.841 152.104 247.9Z"/><path fill="#4CEA19" transform="matrix(3.90625 0 0 3.90625 0 0.00012207)" d="M419.097 307.794C418.194 287.688 431.742 271.504 451.632 267.817C455.981 267.011 459.224 267.01 463.672 267.054C465.122 269.15 466.471 269.048 468.579 270.194C479.085 275.906 483.676 282.778 480.622 294.981C476.126 300.066 473.657 304.106 470.683 310.292C466.146 315.365 463.261 317.888 457.047 320.861C445.18 326.538 428.336 324.364 420.067 313.428C419.982 312.316 419.317 309.057 419.097 307.794Z"/><path fill="#88E86F" transform="matrix(3.90625 0 0 3.90625 0 0.00012207)" d="M453.933 280.182C465.345 280.946 467.653 303.445 446.086 305.616C441.543 304.234 436.811 300.435 436.325 295.616C435.197 284.453 445.614 281.25 453.933 280.182Z"/><path fill="#D5EED1" transform="matrix(3.90625 0 0 3.90625 0 0.00012207)" d="M441.221 275.995C441.816 276.146 442.072 276.359 442.629 276.667L442.509 277.448C440.71 279.352 438.016 280.737 435.718 282.115L434.503 282.101C433.707 280.792 433.97 281.513 434.121 279.763C435.656 277.158 438.282 276.869 441.221 275.995Z"/><path fill="#88E86F" transform="matrix(3.90625 0 0 3.90625 0 0.00012207)" d="M429.227 282.326C432.019 284.898 429.706 287.619 427.365 289.134L426.637 287.955C426.758 286.309 428.357 283.883 429.227 282.326Z"/><path fill="#064007" transform="matrix(3.90625 0 0 3.90625 0 0.00012207)" d="M409.548 211.861C415.531 213.292 439.66 230.813 444.989 235.518C455.647 244.926 468.684 259.181 477.567 270.532C477.01 267.981 476.398 264.787 475.743 262.315L476.793 260.909C477.565 264.494 478.2 266.57 479.374 270.062C487.45 276.315 489.141 276.894 496.017 284.737C498.638 284.053 501.365 283.27 504.022 282.81C506.236 282.862 506.325 282.848 508.497 282.394C514.355 282.779 519.256 283.05 525.06 284.003C530.27 277.575 535.122 270.43 540.69 264.301C551.05 252.898 562.833 242.15 574.766 232.4C579.076 228.878 584.315 226.25 587.779 221.876L587.277 225.094C560.967 243.638 546.369 260.245 526.603 284.672C532.202 286.639 534.825 287.757 539.801 290.997L539.349 291.664C530.001 285.534 524.571 284.461 513.703 284.107C492.534 280.977 474.282 297.989 470.256 317.887C466.749 330.103 467.705 336.027 471.84 347.542L470.53 347.872L468.676 342.54C457.797 346.1 450.338 345.507 439.946 341.051L438.58 340.982C434.503 338.166 419.344 326.201 421.246 320.989C420.318 318.324 419.255 316.071 420.067 313.428C428.336 324.364 445.18 326.538 457.047 320.861C463.261 317.888 466.146 315.365 470.683 310.292C473.657 304.106 476.126 300.066 480.622 294.981C483.676 282.778 479.085 275.906 468.579 270.194C466.471 269.048 465.122 269.15 463.672 267.054C459.224 267.01 455.981 267.011 451.632 267.817C431.742 271.504 418.194 287.688 419.097 307.794L418.48 311.523C417.376 306.332 417.73 301.629 418.684 296.488C412.143 294.401 404.761 291.294 397.994 288.94C384.044 284.088 371.648 281.643 357.488 278.163C358.741 275.06 362.107 269.917 363.979 266.912C359.42 269.961 355.085 273.332 351.007 277C340.515 276.526 328.222 274.855 316.891 274.244C315.476 268.226 325.049 257.345 328.267 252.281C330.69 250.178 331.811 247.506 334.332 245.454L334.929 245.506C334.804 246.622 318.616 269.621 316.632 272.5C322.148 273.534 342.518 275.588 348.083 275.226C353.886 274.849 366.879 261.796 373.063 257.39C367.422 263.868 363.118 270.649 358.521 277.879C369.57 278.815 379.764 282.266 390.279 285.433C395.665 287.055 403.197 290.906 408.376 288.655L408.358 289.786C410.986 288.728 421.218 284.624 423.786 284.442L424.078 283.664C428.333 278.308 430.572 276.552 436.032 272.21C437.391 271.367 440.77 269.869 442.35 269.111C451.278 264.665 464.02 265.024 473.538 267.412C471.417 265.266 468.845 262.277 466.959 259.898C450.818 239.543 431.201 225.852 409.548 211.861Z"/><path fill="#3DB641" transform="matrix(3.90625 0 0 3.90625 0 0.00012207)" d="M470.683 310.292C468.259 320.707 465.586 330.751 468.484 341.315C447.354 347.527 431.859 340.057 421.246 320.989C420.318 318.324 419.255 316.071 420.067 313.428C428.336 324.364 445.18 326.538 457.047 320.861C463.261 317.888 466.146 315.365 470.683 310.292Z"/><path fill="#3DB641" transform="matrix(3.90625 0 0 3.90625 0 0.00012207)" d="M463.672 267.054C476.697 268.751 486.13 274.542 494.268 284.935L494.802 285.629C487.579 289.124 486.347 289.371 480.622 294.981C483.676 282.778 479.085 275.906 468.579 270.194C466.471 269.048 465.122 269.15 463.672 267.054Z"/><path fill="#0B9E02" transform="matrix(3.90625 0 0 3.90625 0 0.00012207)" d="M408.358 289.786C410.986 288.728 421.218 284.624 423.786 284.442C422.02 287.997 420.317 291.188 419.119 294.994C416.5 294.146 409.229 292.149 407.857 290.329L408.358 289.786Z"/><path fill="#011701" transform="matrix(3.90625 0 0 3.90625 0 0.00012207)" d="M230.235 252.71C241.827 246.278 254.199 241.83 266.299 235.14C257.072 243.775 253.67 250.24 245.655 258.538C256.787 260.897 267.926 263.21 279.076 265.477C287.888 267.269 297.32 268.78 305.975 271.115C309.811 267.016 318.301 257.779 323.045 255.748L306.559 272.023C293.351 269.241 280.125 266.551 266.88 263.952C259.29 262.481 251.299 261.269 243.86 259.393C248.06 252.616 254.055 246.72 258.766 240.209L229.833 253.701C210.131 251.251 197.392 248.753 176.491 247.7C177.631 247.206 178.32 247.046 179.502 246.705C197.823 248.133 212.095 249.817 230.235 252.71Z"/><path fill="#064007" transform="matrix(3.90625 0 0 3.90625 0 0.00012207)" d="M424.078 283.664L423.786 284.442C421.218 284.624 410.986 288.728 408.358 289.786L408.376 288.655C411.537 287.136 420.717 284.057 424.078 283.664Z"/><path fill="#5C1002" transform="matrix(3.90625 0 0 3.90625 0 0.00012207)" d="M415.755 655.433C417.43 655.813 418.786 656.188 420.435 656.673L420.588 656.925C432.718 660.53 437.832 661.426 450.722 662.043C454.602 661.726 460.209 662.119 464.339 662.013C470.73 661.849 476.985 661.551 483.369 661.235C485.044 664.252 484.205 671.851 485.429 673.162L485.737 672.15C492.178 752.518 516.872 843.746 551.579 916.6C554.697 923.145 560.718 936.241 564.181 942.155L560.701 942.07C554.213 941.476 533.019 940.691 528.701 938.632C523.477 939.31 520.013 938.91 514.788 938.403C508.626 938.544 502.654 937.471 496.832 937.499C479.562 937.581 459.395 937.25 442.312 939.436L438.907 939.555C437.934 932.901 435.713 925.256 434.28 918.582C431.642 906.292 428.686 893.556 426.549 881.179C418.889 834.721 414.351 787.803 412.966 740.738C412.257 720.818 411.737 688.333 413.943 668.81C414.092 670.016 414.154 671.738 414.234 672.992L414.168 672.72L414.465 673.86C414.719 669.927 414.575 657.947 415.755 655.433Z"/><path fill="#933618" transform="matrix(3.90625 0 0 3.90625 0 0.00012207)" d="M499.263 864.845C501.033 866.207 503.398 874.086 504.357 876.723C508.797 888.912 513.455 901.021 518.329 913.044C520.154 917.468 525.135 928.218 526.395 932.111C522.827 934.745 517.912 935.605 514.788 938.403C508.626 938.544 502.654 937.471 496.832 937.499C479.562 937.581 459.395 937.25 442.312 939.436C439.599 928.214 436.967 916.972 434.419 905.712C433.023 899.554 430.127 888.454 430.256 882.585L430.816 883.43L430.803 883.753L431.257 883.112C430.75 880.934 430.217 878.763 429.658 876.598C428.307 875.321 427.705 874.595 427.875 872.768C430.135 870.552 447.037 872.328 451.699 872.217C469.286 871.797 482.324 869.576 499.263 864.845Z"/><path fill="#DE7838" transform="matrix(3.90625 0 0 3.90625 0 0.00012207)" d="M429.658 876.598C450.79 878.227 457.216 878.504 478.772 877.374C466.418 885.783 448.997 890.307 434.574 894.414C433.872 891.892 432.182 885.198 431.257 883.112C430.75 880.934 430.217 878.763 429.658 876.598Z"/><path fill="#B5531F" transform="matrix(3.90625 0 0 3.90625 0 0.00012207)" d="M415.755 655.433C417.43 655.813 418.786 656.188 420.435 656.673L420.588 656.925C432.718 660.53 437.832 661.426 450.722 662.043C454.769 662.865 459.45 660.972 460.333 665.159L460.017 665.673C460.342 677.488 463.811 705.906 466.216 717.984L458.189 718.591C456.078 718.485 453.772 718.51 451.647 718.591C439.04 719.07 427.217 717.244 414.927 714.756C415.217 696.407 415.16 679.632 415.853 661.121C415.739 660.69 415.759 656.201 415.755 655.433Z"/><path fill="#933618" transform="matrix(3.90625 0 0 3.90625 0 0.00012207)" d="M415.755 655.433C417.43 655.813 418.786 656.188 420.435 656.673L420.588 656.925C432.718 660.53 437.832 661.426 450.722 662.043C454.769 662.865 459.45 660.972 460.333 665.159L460.017 665.673C454.726 665.743 433.818 665.737 429.992 663.982L429.318 664.219L423.423 662.742C420.786 661.287 418.791 661.203 415.853 661.121C415.739 660.69 415.759 656.201 415.755 655.433Z"/><path fill="#A2421B" transform="matrix(3.90625 0 0 3.90625 0 0.00012207)" d="M415.755 655.433C417.43 655.813 418.786 656.188 420.435 656.673L420.588 656.925C420.01 659.168 419.789 658.572 420.615 660.164C424.634 662.593 428.608 658.722 430.239 662.606L429.992 663.982L429.318 664.219L423.423 662.742C420.786 661.287 418.791 661.203 415.853 661.121C415.739 660.69 415.759 656.201 415.755 655.433Z"/><path fill="#DE7838" transform="matrix(3.90625 0 0 3.90625 0 0.00012207)" d="M423.423 662.742L429.318 664.219C429.759 667.894 425.236 687.397 425.514 694.649L424.811 695.75L424.041 695.179C423.808 686.791 422.721 678.403 422.691 669.981C422.685 668.202 423.314 664.394 422.861 663.378L423.423 662.742Z"/><path fill="#DE7838" transform="matrix(3.90625 0 0 3.90625 0 0.00012207)" d="M424.041 695.179L424.811 695.75L425.514 694.649C425.277 697.33 424.803 700.471 424.458 703.18C424.182 700.25 424.082 698.115 424.041 695.179Z"/><path fill="#732012" transform="matrix(3.90625 0 0 3.90625 0 0.00012207)" d="M499.589 864.749C506.914 863.197 515.326 859.863 522.371 857.087C530.21 880.211 537.445 897.892 548.945 919.49C541.35 923.649 534.074 928.124 526.395 932.111C525.135 928.218 520.154 917.468 518.329 913.044C513.455 901.021 508.797 888.912 504.357 876.723C503.398 874.086 501.033 866.207 499.263 864.845L499.589 864.749Z"/><path fill="#933618" transform="matrix(3.90625 0 0 3.90625 0 0.00012207)" d="M450.722 662.043C454.602 661.726 460.209 662.119 464.339 662.013C470.73 661.849 476.985 661.551 483.369 661.235C482.8 666.878 483.933 671.536 483.513 677.292C484.876 689.039 486.852 702.291 487.848 713.897C480.673 715.443 473.46 716.806 466.216 717.984C463.811 705.906 460.342 677.488 460.017 665.673L460.333 665.159C459.45 660.972 454.769 662.865 450.722 662.043Z"/><path fill="#732012" transform="matrix(3.90625 0 0 3.90625 0 0.00012207)" d="M450.722 662.043C454.602 661.726 460.209 662.119 464.339 662.013C470.73 661.849 476.985 661.551 483.369 661.235C482.8 666.878 483.933 671.536 483.513 677.292C482.591 673.824 482.517 667.292 481.882 663.014C477.816 663.77 464.037 665.829 460.333 665.159C459.45 660.972 454.769 662.865 450.722 662.043Z"/><path fill="#A2421B" transform="matrix(3.90625 0 0 3.90625 0 0.00012207)" d="M479.815 790.706C488.206 789.733 493.345 788.816 501.67 786.638C506.363 805.269 513.149 832.09 520.512 849.708C513.251 852.107 504.385 854.782 497.361 857.483L497.068 857.449C481.565 861.891 468.271 864.686 452.108 865.974C443.808 866.636 435.401 866.749 427.26 867.477C424.455 840.914 419.99 814.713 417.48 787.718C435.642 793.149 459.824 794.162 478.57 791.219L479.815 790.706Z"/><path fill="#732012" transform="matrix(3.90625 0 0 3.90625 0 0.00012207)" d="M479.815 790.706C488.206 789.733 493.345 788.816 501.67 786.638C506.363 805.269 513.149 832.09 520.512 849.708C513.251 852.107 504.385 854.782 497.361 857.483L497.068 857.449C496.812 855.185 491.008 836.608 489.921 834.222C487.297 828.459 480.294 792.907 478.57 791.219L479.815 790.706Z"/><path fill="#DE7838" transform="matrix(3.90625 0 0 3.90625 0 0.00012207)" d="M421.398 796.973C427.108 797.07 433.918 798.09 439.794 798.314C446.163 798.556 452.241 798.525 458.614 798.488C456.33 799.825 454.005 800.966 451.647 802.161C443.748 805.542 431.584 808.045 423.097 809.864C422.222 805.439 421.857 801.442 421.398 796.973Z"/><path fill="#A2421B" transform="matrix(3.90625 0 0 3.90625 0 0.00012207)" d="M415.004 718.496C429.341 723.751 446.483 725.237 461.724 724.543C463.518 724.587 465.039 724.612 466.832 724.545C474.551 723.845 481.164 723.195 488.815 721.607C491.325 738.908 495.384 758.52 499.305 775.592C491.771 778.933 484.326 779.221 477.487 781.518L477.156 781.498C459.161 785.994 435.442 784.564 417.191 782.814C416.288 760.722 415.037 740.787 415.004 718.496Z"/><path fill="#933618" transform="matrix(3.90625 0 0 3.90625 0 0.00012207)" d="M466.832 724.545C474.551 723.845 481.164 723.195 488.815 721.607C491.325 738.908 495.384 758.52 499.305 775.592C491.771 778.933 484.326 779.221 477.487 781.518L477.156 781.498C477.461 778.933 470.94 749.28 469.905 743.868C468.671 737.462 467.646 731.018 466.832 724.545Z"/><path fill="#DE7838" transform="matrix(3.90625 0 0 3.90625 0 0.00012207)" d="M423.855 728.489C428.199 729.188 445.409 730.466 447.84 731.496L447.469 732.136C446.679 732.254 446.034 732.468 445.259 732.68C438.122 734.348 431.847 735.268 424.622 736.113C424.561 733.358 424.224 731.203 423.855 728.489Z"/><path fill="#0B6E15" transform="matrix(3.90625 0 0 3.90625 0 0.00012207)" d="M488.716 144.161C530.303 66.7457 612.776 30.8601 697.683 38.2925C702.067 38.6763 706.408 39.4881 710.801 39.7085L711.334 39.7313C709.241 41.2113 708.426 41.7178 706.124 42.8328L701.519 45.5677C685.511 56.6287 673.483 66.2523 660.481 80.565C655.699 83.5913 637.055 89.0958 630.476 92.213L628.472 92.8379C632.031 93.4008 645.213 92.1389 651.063 92.3529C645.497 99.7712 639.835 106.879 635.02 114.828C633.887 116.699 632.467 119.021 631.192 120.766C624.205 122.091 617.209 123.34 610.327 125.141C604.742 125.474 597.899 127.834 592.289 128.712L590.567 129.256C594.334 129.95 609.094 129.279 613.001 128.284C618.168 128.057 621.54 128.208 626.639 128.514C620.377 140.025 615.611 151.12 609.812 162.05C599.082 167.126 572.542 178.064 563.964 185.251C567.102 184.588 570.197 183.817 573.264 182.88C583.506 179.751 593.955 177.461 604.367 174.975C601.284 182.898 597.56 194.079 594.324 201.476C588.238 205.243 581.699 208.923 575.484 212.543C571.691 214.753 566.708 218.107 563.065 220.068L562.33 220.69C563.258 220.694 589.19 212.369 591.302 211.511C590.102 214.806 588.641 218.525 587.779 221.876C584.315 226.25 579.076 228.878 574.766 232.4C562.833 242.15 551.05 252.898 540.69 264.301C535.122 270.43 530.27 277.575 525.06 284.003C519.256 283.05 514.355 282.779 508.497 282.394C506.325 282.848 506.236 282.862 504.022 282.81C501.365 283.27 498.638 284.053 496.017 284.737C489.141 276.894 487.45 276.315 479.374 270.062C478.2 266.57 477.565 264.494 476.793 260.909C476.767 258.975 475.002 245.423 474.488 243.924L473.257 241.629C472.543 230.151 472.67 200.06 475.158 188.948L475.789 185.274C479.355 168.928 480.885 159.024 488.716 144.161Z"/><path fill="#3DB641" transform="matrix(3.90625 0 0 3.90625 0 0.00012207)" d="M488.716 144.161C530.303 66.7457 612.776 30.8601 697.683 38.2925C702.067 38.6763 706.408 39.4881 710.801 39.7085L711.334 39.7313C709.241 41.2113 708.426 41.7178 706.124 42.8328C702.479 42.4084 693.761 43.1657 689.93 43.6844C656.497 48.2112 620.884 64.8358 594.596 85.6692C565.326 108.842 542.271 138.923 527.503 173.211C524.488 180.237 522.093 186.924 519.564 194.133C518.822 196.247 516.601 203.252 515.772 204.89L514.806 205.02C514.047 203.672 511.759 197.092 511.111 195.277C508.391 187.663 505.554 180.03 502.558 172.605C500.195 166.75 489.538 150.827 489.631 145.571L488.716 144.161Z"/><path fill="#064007" transform="matrix(3.90625 0 0 3.90625 0 0.00012207)" d="M489.631 145.571C499.532 158.385 514.434 189.209 515.772 204.89L514.806 205.02C514.047 203.672 511.759 197.092 511.111 195.277C508.391 187.663 505.554 180.03 502.558 172.605C500.195 166.75 489.538 150.827 489.631 145.571Z"/><path fill="#0B9E02" transform="matrix(3.90625 0 0 3.90625 0 0.00012207)" d="M488.716 144.161L489.631 145.571C489.538 150.827 500.195 166.75 502.558 172.605C505.554 180.03 508.391 187.663 511.111 195.277C511.759 197.092 514.047 203.672 514.806 205.02C514.981 205.511 515.156 206.001 515.331 206.491C513.075 216.416 509.775 228.675 508.082 238.433C505.361 254.125 504.517 267.223 504.022 282.81C501.365 283.27 498.638 284.053 496.017 284.737C489.141 276.894 487.45 276.315 479.374 270.062C478.2 266.57 477.565 264.494 476.793 260.909C476.767 258.975 475.002 245.423 474.488 243.924L473.257 241.629C472.543 230.151 472.67 200.06 475.158 188.948L475.789 185.274C479.355 168.928 480.885 159.024 488.716 144.161Z"/><path fill="#064007" transform="matrix(3.90625 0 0 3.90625 0 0.00012207)" d="M475.789 185.274C476 188.562 475.766 191.765 475.459 195.042C473.923 211.441 473.778 227.495 474.488 243.924L473.257 241.629C472.543 230.151 472.67 200.06 475.158 188.948L475.789 185.274Z"/><path fill="#095F0F" transform="matrix(3.90625 0 0 3.90625 0 0.00012207)" d="M515.772 204.89C516.601 203.252 518.822 196.247 519.564 194.133C522.093 186.924 524.488 180.237 527.503 173.211C542.271 138.923 565.326 108.842 594.596 85.6692C620.884 64.8358 656.497 48.2112 689.93 43.6844C693.761 43.1657 702.479 42.4084 706.124 42.8328L701.519 45.5677C691.419 43.5895 648.568 61.4628 638.927 66.222C631.234 70.0277 623.786 74.3107 616.628 79.0458C546.485 126.096 514.37 199.821 508.497 282.394C506.325 282.848 506.236 282.862 504.022 282.81C504.517 267.223 505.361 254.125 508.082 238.433C509.775 228.675 513.075 216.416 515.331 206.491C515.156 206.001 514.981 205.511 514.806 205.02L515.772 204.89Z"/><path fill="#095F0F" transform="matrix(3.90625 0 0 3.90625 0 0.00012207)" d="M630.372 90.7028C635.78 87.9307 655.151 80.6168 660.481 80.565C655.699 83.5913 637.055 89.0958 630.476 92.213L630.372 90.7028Z"/><path fill="#064007" transform="matrix(3.90625 0 0 3.90625 0 0.00012207)" d="M562.33 220.69C558.997 221.08 558.81 223.947 556.265 225.186C553.609 226.478 541.551 233.193 539.784 233.766L539.285 233.349C545.345 229.942 550.797 226.116 556.444 222.1C558.462 220.665 560.699 219.139 563.065 220.068L562.33 220.69Z"/><path fill="#010C01" transform="matrix(3.90625 0 0 3.90625 0 0.00012207)" d="M630.372 90.7028L630.476 92.213L628.472 92.8379C628.404 92.8523 628.335 92.8666 628.266 92.8809C624.892 94.6445 621.98 94.7252 618.26 94.8456C622.165 93.4132 626.411 92.0531 630.372 90.7028Z"/><path fill="#064007" transform="matrix(3.90625 0 0 3.90625 0 0.00012207)" d="M590.567 129.256C588.746 129.813 585.958 130.869 584.179 130.73C586.101 129.03 588.502 128.447 591 128.111C591.366 128.269 591.987 128.503 592.289 128.712L590.567 129.256Z"/><path fill="#011701" transform="matrix(3.90625 0 0 3.90625 0 0.00012207)" d="M563.167 186.046L563.986 186.19L563.831 186.609C561.367 188.172 552.618 191.158 549.273 192.461L548.964 192.143C551.818 190.431 555.717 187.655 558.529 186.491C559.173 187.256 558.914 186.989 559.875 187.461C561.148 186.82 561.857 186.546 563.167 186.046Z"/><path fill="#3DB641" transform="matrix(3.90625 0 0 3.90625 0 0.00012207)" d="M651.472 298.749C655.291 300.242 655.689 305.914 662.475 306.103C667.015 305.521 674.866 304.348 679.196 304.404C693.654 309.379 711.197 315.009 724.717 322.082C763.399 342.318 792.815 373.683 811.861 412.605C827.927 444.665 834.336 480.701 830.308 516.334C829.269 525.066 827.369 535.456 824.505 543.69L824.352 544.12C824.273 544.609 823.347 547.651 823.164 548.288C822.041 546.053 821.054 543.4 820.109 541.058C813.896 526.983 803.445 511.561 794.41 499.053C790.743 493.976 781.992 485.118 779.594 479.98C777.057 474.543 775.314 459.713 774.982 453.347C773.573 456.059 770.526 469.629 769.66 473.273C757.041 464.118 746.703 455.511 732.928 447.302L729.044 444.438C727.408 434.948 726.652 420.246 725.798 410.129C723.703 417.973 720.703 426.527 718.129 434.296C717.566 435.876 717.54 435.988 716.651 437.395C714.455 437.445 696.074 425.031 690.738 423.844C686.686 419.33 679.163 418.357 676.781 413.459C676.065 411.985 675.718 411.204 674.754 409.552L676.761 410.292C677.535 408.003 677.843 392.277 678.374 388.057L678.454 387.463C678.479 385.913 678.413 384.42 678.357 382.873L670.299 405.026C669.258 406.795 668.725 407.859 667.894 409.737L667.529 409.381C661.409 405.777 649.694 397.553 642.967 396.679C639.207 393.117 628.361 388.123 623.422 385.641C621.976 383.05 621.41 381.487 621.15 378.576L621.505 378.502C621.505 375.229 620.058 368.775 620.708 367.14C619.695 361.213 619.319 357.062 617.694 351.144C616.055 359.146 612.584 367.263 610.681 375.827C594.822 368.08 569.807 359.051 553.218 354.1C557.019 347.852 558.246 343.022 560.042 335.94C560.285 334.502 560.434 332.921 560.602 331.46C560.639 327.812 560.163 323.644 559.834 319.965C572.645 319.114 587.768 314.741 600.865 312.732C601.606 313.466 602.37 314.324 603.088 315.093C603.285 314.28 602.72 313.464 602.32 312.489L601.851 311.303C608.361 309.041 629.773 307.592 637.273 306.274C640.608 305.688 645.459 305.78 648.69 304.522L649.05 304.401C649.978 304.961 650.162 305.242 651.129 305.408C649.67 302.883 648.942 301.414 647.749 298.777C649.203 298.711 650.008 298.635 651.472 298.749Z"/><path fill="#0B9E02" transform="matrix(3.90625 0 0 3.90625 0 0.00012207)" d="M560.042 335.94C570.084 336.728 580.306 336.655 590.354 337.574C627.846 341.06 665.518 351.488 699.211 368.357C705.797 371.757 712.063 376.008 718.489 379.648C760.01 403.171 791.887 441.913 809.55 486.011C814.173 497.551 820.955 522.798 822.171 535.126L821.86 537.775C821.042 538.308 821.443 538.243 820.718 538.199C820.518 539.086 820.231 540.178 820.109 541.058C813.896 526.983 803.445 511.561 794.41 499.053C790.743 493.976 781.992 485.118 779.594 479.98C777.057 474.543 775.314 459.713 774.982 453.347C773.573 456.059 770.526 469.629 769.66 473.273C757.041 464.118 746.703 455.511 732.928 447.302L729.044 444.438C727.408 434.948 726.652 420.246 725.798 410.129C723.703 417.973 720.703 426.527 718.129 434.296C717.566 435.876 717.54 435.988 716.651 437.395C714.455 437.445 696.074 425.031 690.738 423.844C686.686 419.33 679.163 418.357 676.781 413.459C676.065 411.985 675.718 411.204 674.754 409.552L676.761 410.292C677.535 408.003 677.843 392.277 678.374 388.057L678.454 387.463C678.479 385.913 678.413 384.42 678.357 382.873L670.299 405.026C669.258 406.795 668.725 407.859 667.894 409.737L667.529 409.381C661.409 405.777 649.694 397.553 642.967 396.679C639.207 393.117 628.361 388.123 623.422 385.641C621.976 383.05 621.41 381.487 621.15 378.576L621.505 378.502C621.505 375.229 620.058 368.775 620.708 367.14C619.695 361.213 619.319 357.062 617.694 351.144C616.055 359.146 612.584 367.263 610.681 375.827C594.822 368.08 569.807 359.051 553.218 354.1C557.019 347.852 558.246 343.022 560.042 335.94Z"/><path fill="#0B6E15" transform="matrix(3.90625 0 0 3.90625 0 0.00012207)" d="M774.643 448.595L775.012 447.845C775.343 448.342 781.44 476.64 783.53 480.178C787.352 486.646 791.879 489.745 795.837 495.224C800.904 502.24 805.942 511.084 810.28 518.618C813.458 524.136 817.247 530.035 819.752 535.817C820.081 536.576 820.418 537.425 820.718 538.199C820.518 539.086 820.231 540.178 820.109 541.058C813.896 526.983 803.445 511.561 794.41 499.053C790.743 493.976 781.992 485.118 779.594 479.98C777.057 474.543 775.314 459.713 774.982 453.347C775.408 451.069 775.276 450.902 774.643 448.595Z"/><path fill="#095F0F" transform="matrix(3.90625 0 0 3.90625 0 0.00012207)" d="M732.018 444.076C743.864 447.651 759.906 461.385 769.141 469.959C771.493 463.347 772.704 453.321 774.643 448.595C775.276 450.902 775.408 451.069 774.982 453.347C773.573 456.059 770.526 469.629 769.66 473.273C757.041 464.118 746.703 455.511 732.928 447.302C732.744 445.652 732.634 445.561 732.018 444.076Z"/><path fill="#095F0F" transform="matrix(3.90625 0 0 3.90625 0 0.00012207)" d="M678.454 387.463C679.493 396.236 677.187 405.558 680.169 413.271C688.182 418.169 708.701 429.118 715.341 434.768L716.124 434.415L716.654 432.548L718.129 434.296C717.566 435.876 717.54 435.988 716.651 437.395C714.455 437.445 696.074 425.031 690.738 423.844C686.686 419.33 679.163 418.357 676.781 413.459C676.065 411.985 675.718 411.204 674.754 409.552L676.761 410.292C677.535 408.003 677.843 392.277 678.374 388.057L678.454 387.463Z"/><path fill="#095F0F" transform="matrix(3.90625 0 0 3.90625 0 0.00012207)" d="M620.708 367.14C622.435 371.735 622.971 378.863 624.447 383.437C637.679 389.963 655.113 398.404 667.343 406.16C667.457 407.402 667.54 408.119 667.529 409.381C661.409 405.777 649.694 397.553 642.967 396.679C639.207 393.117 628.361 388.123 623.422 385.641C621.976 383.05 621.41 381.487 621.15 378.576L621.505 378.502C621.505 375.229 620.058 368.775 620.708 367.14Z"/><path fill="#064007" transform="matrix(3.90625 0 0 3.90625 0 0.00012207)" d="M716.654 432.548C717.208 430.585 725.546 406.543 726.017 406.009C727.951 407.795 729.283 441.954 732.018 444.076C732.634 445.561 732.744 445.652 732.928 447.302L729.044 444.438C727.408 434.948 726.652 420.246 725.798 410.129C723.703 417.973 720.703 426.527 718.129 434.296L716.654 432.548Z"/><path fill="#064007" transform="matrix(3.90625 0 0 3.90625 0 0.00012207)" d="M667.343 406.16C667.603 402.861 677.893 378.148 679.685 377.295L679.681 378.883L678.934 378.68L679.522 379.485L678.357 382.873L670.299 405.026C669.258 406.795 668.725 407.859 667.894 409.737L667.529 409.381C667.54 408.119 667.457 407.402 667.343 406.16Z"/><path fill="#0B6E15" transform="matrix(3.90625 0 0 3.90625 0 0.00012207)" d="M560.602 331.46C566.427 331.363 572.268 330.942 578.116 331.122C608.049 332.041 638.031 337.571 666.384 347.181C675.021 350.109 683.88 354.422 692.253 357.943C718.605 369.026 742.774 385.523 763.676 404.936C769.826 410.648 775.004 417.416 780.392 423.854C806.727 455.323 822.382 494.551 823.137 535.894L822.171 535.126C820.955 522.798 814.173 497.551 809.55 486.011C791.887 441.913 760.01 403.171 718.489 379.648C712.063 376.008 705.797 371.757 699.211 368.357C665.518 351.488 627.846 341.06 590.354 337.574C580.306 336.655 570.084 336.728 560.042 335.94C560.285 334.502 560.434 332.921 560.602 331.46Z"/><path fill="#064007" transform="matrix(3.90625 0 0 3.90625 0 0.00012207)" d="M649.05 304.401C649.978 304.961 650.162 305.242 651.129 305.408L651.172 306.252C645.277 306.623 606.538 310.814 602.32 312.489L601.851 311.303C608.361 309.041 629.773 307.592 637.273 306.274C640.608 305.688 645.459 305.78 648.69 304.522L649.05 304.401Z"/><path fill="#0B9E02" transform="matrix(3.90625 0 0 3.90625 0 0.00012207)" d="M822.171 535.126L823.137 535.894C823.698 539.214 823.075 541.741 824.352 544.12C824.273 544.609 823.347 547.651 823.164 548.288C822.041 546.053 821.054 543.4 820.109 541.058C820.231 540.178 820.518 539.086 820.718 538.199C821.443 538.243 821.042 538.308 821.86 537.775L822.171 535.126Z"/><path fill="#3DB641" transform="matrix(3.90625 0 0 3.90625 0 0.00012207)" d="M587.277 225.094C587.596 224.98 587.916 224.871 588.232 224.753C593.129 222.919 598.158 218.917 602.673 216.246C607.21 213.561 612.357 211.451 617.223 209.402C664.973 189.288 714.449 185.642 762.74 206.435C797.211 221.277 852.695 261.285 866.282 296.954C866.345 297.121 866.398 297.292 866.456 297.461L866.475 298.132C865.019 298.514 864.201 297.854 862.458 297.24L852.482 294.219C849.258 293.689 843.225 291.962 839.864 291.108C831.974 289.056 824.044 287.162 816.078 285.427C808.91 283.942 801.711 282.609 794.487 281.43C783.468 279.525 779.537 279.128 770.579 272.111C769.416 271.2 769.244 271.34 768.105 271.692L770.756 275.859C773.955 281.678 778.459 286.259 781.667 291.729C762.385 292.097 742.69 293.521 724.026 293.711C719.206 289.003 714.438 284.417 709.871 279.458C707.047 276.815 703.637 273.428 700.559 271.216C705.611 280.677 711.952 289.303 717.299 298.689L717.093 299.296L716.442 299.452C712.943 299.57 707.12 300.375 704.578 300.365C696.301 302.223 688.092 302.319 679.196 304.404C674.866 304.348 667.015 305.521 662.475 306.103C655.689 305.914 655.291 300.242 651.472 298.749C650.031 296.491 645.747 291.049 643.644 289.615C644.167 292.966 646.057 295.812 647.749 298.777C648.942 301.414 649.67 302.883 651.129 305.408C650.162 305.242 649.978 304.961 649.05 304.401L648.69 304.522C645.459 305.78 640.608 305.688 637.273 306.274C629.773 307.592 608.361 309.041 601.851 311.303C599.055 307.407 596.014 298.2 592.421 294.371C594.275 299.795 597.635 305.95 600.253 311.167C587.196 314.027 572.96 317.424 559.663 318.166C557.352 309.924 555.827 306.554 550.1 300.016C548.258 297.712 547.715 296.521 545.107 296.125C544.295 295.655 540.326 292.428 539.349 291.664L539.801 290.997C534.825 287.757 532.202 286.639 526.603 284.672C546.369 260.245 560.967 243.638 587.277 225.094Z"/><path fill="#0B9E02" transform="matrix(3.90625 0 0 3.90625 0 0.00012207)" d="M550.1 300.016C562.261 287.322 593.919 270.184 610.003 263.698C687.121 232.598 788.781 233.119 854.469 289.677C856.658 291.561 861.429 294.724 862.458 297.24L852.482 294.219C849.258 293.689 843.225 291.962 839.864 291.108C831.974 289.056 824.044 287.162 816.078 285.427C808.91 283.942 801.711 282.609 794.487 281.43C783.468 279.525 779.537 279.128 770.579 272.111C769.416 271.2 769.244 271.34 768.105 271.692L770.756 275.859C773.955 281.678 778.459 286.259 781.667 291.729C762.385 292.097 742.69 293.521 724.026 293.711C719.206 289.003 714.438 284.417 709.871 279.458C707.047 276.815 703.637 273.428 700.559 271.216C705.611 280.677 711.952 289.303 717.299 298.689L717.093 299.296L716.442 299.452C712.943 299.57 707.12 300.375 704.578 300.365C696.301 302.223 688.092 302.319 679.196 304.404C674.866 304.348 667.015 305.521 662.475 306.103C655.689 305.914 655.291 300.242 651.472 298.749C650.031 296.491 645.747 291.049 643.644 289.615C644.167 292.966 646.057 295.812 647.749 298.777C648.942 301.414 649.67 302.883 651.129 305.408C650.162 305.242 649.978 304.961 649.05 304.401L648.69 304.522C645.459 305.78 640.608 305.688 637.273 306.274C629.773 307.592 608.361 309.041 601.851 311.303C599.055 307.407 596.014 298.2 592.421 294.371C594.275 299.795 597.635 305.95 600.253 311.167C587.196 314.027 572.96 317.424 559.663 318.166C557.352 309.924 555.827 306.554 550.1 300.016Z"/><path fill="#0B6E15" transform="matrix(3.90625 0 0 3.90625 0 0.00012207)" d="M592.421 294.371L591.925 293.171C599.295 293.845 586.678 292.597 593.458 293.564C613.084 296.365 630.095 295.691 648.69 304.522C645.459 305.78 640.608 305.688 637.273 306.274C629.773 307.592 608.361 309.041 601.851 311.303C599.055 307.407 596.014 298.2 592.421 294.371Z"/><path fill="#095F0F" transform="matrix(3.90625 0 0 3.90625 0 0.00012207)" d="M768.899 269.33C772.19 270.426 778.285 274.539 780.911 275.032C800.034 278.618 818.483 282.679 836.91 289.051C841.729 290.714 847.614 291.531 852.305 293.661L852.482 294.219C849.258 293.689 843.225 291.962 839.864 291.108C831.974 289.056 824.044 287.162 816.078 285.427C808.91 283.942 801.711 282.609 794.487 281.43C783.468 279.525 779.537 279.128 770.579 272.111C769.416 271.2 769.244 271.34 768.105 271.692C766.925 270.764 767.226 271.228 766.702 269.901C767.571 269.645 768.036 269.525 768.899 269.33Z"/><path fill="#095F0F" transform="matrix(3.90625 0 0 3.90625 0 0.00012207)" d="M707.663 274.885C713.161 278.818 719.226 285.086 725.346 289.688C729.91 290.011 734.466 290.072 738.996 290.67C752.562 292.462 766.091 290.57 779.845 290.908C777.87 287.412 770.78 279.437 770.184 277.149L770.756 275.859C773.955 281.678 778.459 286.259 781.667 291.729C762.385 292.097 742.69 293.521 724.026 293.711C719.206 289.003 714.438 284.417 709.871 279.458C709.307 276.819 708.294 277.18 707.663 274.885Z"/><path fill="#064007" transform="matrix(3.90625 0 0 3.90625 0 0.00012207)" d="M641.133 281.968C646.572 287.369 656.777 303.046 662.505 304.691L662.475 306.103C655.689 305.914 655.291 300.242 651.472 298.749C650.031 296.491 645.747 291.049 643.644 289.615L642.889 289.293C640.33 285.512 642.659 285.968 641.133 281.968Z"/><path fill="#010C01" transform="matrix(3.90625 0 0 3.90625 0 0.00012207)" d="M693.249 261.878C698.097 266.015 702.71 270.644 707.663 274.885C708.294 277.18 709.307 276.819 709.871 279.458C707.047 276.815 703.637 273.428 700.559 271.216C705.611 280.677 711.952 289.303 717.299 298.689L717.093 299.296L716.442 299.452C708.851 287.401 700.895 273.454 693.249 261.878Z"/><path fill="#010C01" transform="matrix(3.90625 0 0 3.90625 0 0.00012207)" d="M649.05 304.401C645.326 298.456 642.815 292.236 639.731 285.968C637.042 280.502 634.163 275.19 631.5 269.707C634.39 273.929 638.059 277.782 641.133 281.968C642.659 285.968 640.33 285.512 642.889 289.293L643.644 289.615C644.167 292.966 646.057 295.812 647.749 298.777C648.942 301.414 649.67 302.883 651.129 305.408C650.162 305.242 649.978 304.961 649.05 304.401Z"/><path fill="#010C01" transform="matrix(3.90625 0 0 3.90625 0 0.00012207)" d="M662.505 304.691C672.043 303.372 681.61 302.264 691.197 301.368C694.514 301.031 701.57 300.131 704.578 300.365C696.301 302.223 688.092 302.319 679.196 304.404C674.866 304.348 667.015 305.521 662.475 306.103L662.505 304.691Z"/><path fill="#010C01" transform="matrix(3.90625 0 0 3.90625 0 0.00012207)" d="M758.916 262.019C762.203 264.24 765.688 266.946 768.899 269.33C768.036 269.525 767.571 269.645 766.702 269.901C767.226 271.228 766.925 270.764 768.105 271.692L770.756 275.859L770.184 277.149C766.324 271.479 763.181 267.364 758.916 262.019Z"/><path fill="#095F0F" transform="matrix(3.90625 0 0 3.90625 0 0.00012207)" d="M546.066 295.644C588.084 253.889 657.701 236.381 715.254 237.164C765.468 237.847 812.936 251.565 851.342 284.505C854.972 287.619 862.838 295.688 866.456 297.461L866.475 298.132C865.019 298.514 864.201 297.854 862.458 297.24C861.429 294.724 856.658 291.561 854.469 289.677C788.781 233.119 687.121 232.598 610.003 263.698C593.919 270.184 562.261 287.322 550.1 300.016C548.258 297.712 547.715 296.521 545.107 296.125C544.295 295.655 540.326 292.428 539.349 291.664L539.801 290.997C542.411 292.602 543.746 293.725 546.066 295.644Z"/><path fill="#0B6E15" transform="matrix(3.90625 0 0 3.90625 0 0.00012207)" d="M435.169 342.3C436.999 342.128 438.217 341.626 439.946 341.051C450.338 345.507 457.797 346.1 468.676 342.54L470.53 347.872L471.84 347.542C474.047 352.595 475.579 355.077 479.208 359.324C479.576 359.755 482.579 363.11 482.616 363.171C482.981 363.413 484.403 364.308 484.604 364.558C484.082 365.838 483.146 368.813 482.157 369.28C477.452 375.194 469.755 389.528 465.665 396.707C461.47 404.073 454.852 415.308 451.399 422.757C443.519 418.561 427.404 407.465 419.732 401.747C426.263 411.139 433.43 421.679 438.527 431.858C433.27 435.839 428.138 439.982 423.14 444.284C422.096 445.174 414.611 451.707 413.941 452.074C411.92 454.255 405.942 460.524 403.568 462.326C401.695 464.201 401.307 464.729 399.063 466.014C397.659 465.898 380.636 444.466 377.985 441.365C381.156 451.676 385.661 465.213 387.64 475.569C381.844 482.866 374.284 489.394 368.621 497.031C367.292 498.823 361.082 507.552 360.061 508.27C357.321 506.958 349.658 502.287 347.475 500.533C344.833 499.435 341.191 496.096 338.686 497.077C343.443 503.767 348.314 511.655 350.757 519.549C351.571 520.777 351.979 521.065 351.935 522.505C344.901 537.433 339.794 546.177 333.341 562.114C332.608 560.603 331.289 558.091 330.747 556.603C328.038 551.67 325.094 545.701 323.078 540.465C322.693 546.755 323.577 560.061 324.334 566.34C326.028 580.384 322.8 581.933 319.054 594.565C315.648 606.05 312.166 620.639 310.729 632.559L307.875 626.555C290.298 593.533 278.754 555.275 277.565 517.75C275.638 456.917 294.952 410.702 336.292 366.886C338.598 366.384 341.049 365.699 343.348 365.104C344.254 361.135 346.07 342.885 346.891 341.601C349.046 344.979 350.999 356.203 352.707 360.542C363.105 358.121 430.927 340.794 435.169 342.3Z"/><path fill="#3DB641" transform="matrix(3.90625 0 0 3.90625 0 0.00012207)" d="M435.169 342.3C436.999 342.128 438.217 341.626 439.946 341.051C450.338 345.507 457.797 346.1 468.676 342.54L470.53 347.872C458.054 349.864 447.99 354.593 436.665 359.357C397.865 375.681 367.523 402.001 342.861 436.059C304.43 489.132 293.823 547.617 304.847 611.648C305.63 616.192 306.802 622.287 309.281 626.266L307.875 626.555C290.298 593.533 278.754 555.275 277.565 517.75C275.638 456.917 294.952 410.702 336.292 366.886C338.598 366.384 341.049 365.699 343.348 365.104C344.254 361.135 346.07 342.885 346.891 341.601C349.046 344.979 350.999 356.203 352.707 360.542C363.105 358.121 430.927 340.794 435.169 342.3Z"/><path fill="#064007" transform="matrix(3.90625 0 0 3.90625 0 0.00012207)" d="M352.707 360.542C363.105 358.121 430.927 340.794 435.169 342.3C416.328 346.052 397.514 351.221 378.828 355.736C369.749 357.93 360.776 360.43 351.575 362.091C349.754 355.323 348.192 348.488 346.891 341.601C349.046 344.979 350.999 356.203 352.707 360.542Z"/><path fill="#064007" transform="matrix(3.90625 0 0 3.90625 0 0.00012207)" d="M471.84 347.542C474.047 352.595 475.579 355.077 479.208 359.324C479.576 359.755 482.579 363.11 482.616 363.171L481.83 363.582C477.407 360.363 474.244 354.871 471.833 350.043C459.702 352.011 447.857 356.341 436.701 361.428C401.696 377.696 371.552 402.83 349.255 434.339C318.281 477.262 304.033 526.329 306.242 579.055C306.881 594.305 310.062 608.988 309.677 623.879C309.642 625.217 309.544 625.179 309.729 626.607L309.281 626.266C306.802 622.287 305.63 616.192 304.847 611.648C293.823 547.617 304.43 489.132 342.861 436.059C367.523 402.001 397.865 375.681 436.665 359.357C447.99 354.593 458.054 349.864 470.53 347.872L471.84 347.542Z"/><path fill="#010C01" transform="matrix(3.90625 0 0 3.90625 0 0.00012207)" d="M350.757 519.549C349.348 518.081 343.394 506.252 341.514 503.458C338.677 499.24 336.96 496.681 332.852 493.112C332.133 492.488 331.184 491.44 331.239 490.342C333.746 490.842 336.016 492.59 337.795 494.358L336.508 494.507C336.579 495.34 337.893 496.294 338.686 497.077C343.443 503.767 348.314 511.655 350.757 519.549Z"/><path fill="#011701" transform="matrix(3.90625 0 0 3.90625 0 0.00012207)" d="M323.078 540.465C321.693 536.098 320.134 531.001 319.637 526.438C321.481 531.909 330.992 553.731 330.747 556.603C328.038 551.67 325.094 545.701 323.078 540.465Z"/><path fill="#095F0F" transform="matrix(3.90625 0 0 3.90625 0 0.00012207)" d="M347.475 500.533C349.844 500.185 355.465 504.03 357.822 505.237C358.715 505.694 359.58 507.317 360.061 508.27C357.321 506.958 349.658 502.287 347.475 500.533Z"/><path fill="#0B6E15" transform="matrix(3.90625 0 0 3.90625 0 0.00012207)" d="M543.18 365.501C546.707 362.364 549.888 358.859 552.67 355.046C572.936 360.919 591.8 369.246 611.199 377.413C612.328 377.889 614.069 378.432 615.3 378.288C613.338 377.222 613.281 377.619 612.553 376.012C612.867 374.066 613.051 373.784 613.883 371.954C614.145 374.767 615.325 378.602 618.535 379.182C620.222 378.532 619.504 379.032 620.675 377.508L621.15 378.576C621.41 381.487 621.976 383.05 623.422 385.641C628.361 388.123 639.207 393.117 642.967 396.679C649.694 397.553 661.409 405.777 667.529 409.381L667.894 409.737C668.725 407.859 669.258 406.795 670.299 405.026C671.557 406.142 674.147 408.167 674.754 409.552C675.718 411.204 676.065 411.985 676.781 413.459C679.163 418.357 686.686 419.33 690.738 423.844C696.495 439.322 701.278 448.498 705.961 465.291C717.268 507.178 713.645 551.695 695.715 591.203C686.184 612.012 669.103 640.767 651.534 655.514C658.715 628.291 656.946 606.395 654.693 578.564C654.324 574.003 654.929 567.836 653.677 563.857C652.574 567.765 646.572 579.29 644.422 583.464C643.346 580.106 642.552 577.391 641.709 573.97C638.292 564.185 633.384 552.116 630.481 542.744C634.036 531.331 642.453 521.85 646.737 511.833C642.266 512.415 638.762 516.265 635.045 518.873C634.193 520.204 624.462 527.713 622.57 529.256C619.727 525.347 617.141 520.057 614.445 516.076C607.896 506.41 598.924 491.197 591.311 482.75L590.757 481.404C591.561 475.993 597.172 463.624 599.646 458.222L602.061 451.732C595.328 457.17 589.687 464.345 583.059 469.899C581.946 471.336 581.281 472.649 579.608 473.066L578.747 472.041C575.994 469.14 570.401 461.614 567.629 458.193C563.251 452.789 557.972 446.867 553.863 441.44C555.514 436.678 564.086 420.443 567.309 416.74L567.216 414.651C560.361 419.011 554.048 424.329 547.563 429.273C546.372 430.101 546.371 430.296 544.973 430.343C541.804 427.461 523.153 396.106 520.223 390.615C517.903 386.848 515.899 381.996 514.195 377.884L513.387 376.397L513.55 375.913C523.386 375.005 530.147 373.664 538.73 368.851C539.685 367.925 542.007 366.351 543.18 365.501Z"/><path fill="#0B9E02" transform="matrix(3.90625 0 0 3.90625 0 0.00012207)" d="M538.73 368.851C541.634 371.943 550.943 376.096 555.036 378.968C588.828 402.678 619.683 430.375 639.415 467.104C658.883 503.341 671.23 541.975 667.21 583.524C666.12 594.793 664.633 604.434 660.957 615.264C659.697 607.943 658.443 565.915 654.854 561.772C653.781 562.144 653.869 562.742 653.677 563.857C652.574 567.765 646.572 579.29 644.422 583.464C643.346 580.106 642.552 577.391 641.709 573.97C638.292 564.185 633.384 552.116 630.481 542.744C634.036 531.331 642.453 521.85 646.737 511.833C642.266 512.415 638.762 516.265 635.045 518.873C634.193 520.204 624.462 527.713 622.57 529.256C619.727 525.347 617.141 520.057 614.445 516.076C607.896 506.41 598.924 491.197 591.311 482.75L590.757 481.404C591.561 475.993 597.172 463.624 599.646 458.222L602.061 451.732C595.328 457.17 589.687 464.345 583.059 469.899C581.946 471.336 581.281 472.649 579.608 473.066L578.747 472.041C575.994 469.14 570.401 461.614 567.629 458.193C563.251 452.789 557.972 446.867 553.863 441.44C555.514 436.678 564.086 420.443 567.309 416.74L567.216 414.651C560.361 419.011 554.048 424.329 547.563 429.273C546.372 430.101 546.371 430.296 544.973 430.343C541.804 427.461 523.153 396.106 520.223 390.615C517.903 386.848 515.899 381.996 514.195 377.884L513.387 376.397L513.55 375.913C523.386 375.005 530.147 373.664 538.73 368.851Z"/><defs><linearGradient id="gradient_0" gradientUnits="userSpaceOnUse" x1="605.31488" y1="505.26013" x2="609.66284" y2="501.86707"><stop offset="0" stop-color="#045603"/><stop offset="1" stop-color="#066F01"/></linearGradient></defs><path fill="url(#gradient_0)" transform="matrix(3.90625 0 0 3.90625 0 0.00012207)" d="M593.291 479.989C601.307 487.668 618.538 515.402 623.636 525.843C626.191 524.128 632.894 518.659 635.045 518.873C634.193 520.204 624.462 527.713 622.57 529.256C619.727 525.347 617.141 520.057 614.445 516.076C607.896 506.41 598.924 491.197 591.311 482.75C592.393 481.554 592.471 481.394 593.291 479.989Z"/><path fill="#095F0F" transform="matrix(3.90625 0 0 3.90625 0 0.00012207)" d="M646.737 511.833C648.038 510.898 647.717 511.492 648.177 510.233L647.779 509.974L646.253 510.595L645.887 510.238C647.609 508.498 648.286 507.926 650.275 506.497L650.839 507.043C650.157 510.901 646.661 514.44 645.286 517.677C641.924 525.587 636.735 535.139 633.721 542.912C638.972 553.842 641.169 562.102 644.281 573.668L643.687 574.518L641.709 573.97C638.292 564.185 633.384 552.116 630.481 542.744C634.036 531.331 642.453 521.85 646.737 511.833Z"/><path fill="#095F0F" transform="matrix(3.90625 0 0 3.90625 0 0.00012207)" d="M520.974 387.983C527.585 396.903 533.868 407.28 540.142 416.511C541.944 419.163 545.584 425.644 547.199 427.661L547.563 429.273C546.372 430.101 546.371 430.296 544.973 430.343C541.804 427.461 523.153 396.106 520.223 390.615L520.974 387.983Z"/><path fill="#095F0F" transform="matrix(3.90625 0 0 3.90625 0 0.00012207)" d="M553.863 441.44C555.514 436.678 564.086 420.443 567.309 416.74C566.09 420.587 563.124 425.14 561.345 428.904C559.454 432.905 557.871 436.766 556.204 440.868C561.21 446.143 577.112 465.8 578.747 472.041C575.994 469.14 570.401 461.614 567.629 458.193C563.251 452.789 557.972 446.867 553.863 441.44Z"/><path fill="#095F0F" transform="matrix(3.90625 0 0 3.90625 0 0.00012207)" d="M547.199 427.661C550.27 424.584 567.228 410.373 570.712 410.034L570.885 410.675C569.854 413.003 568.533 412.672 567.216 414.651C560.361 419.011 554.048 424.329 547.563 429.273L547.199 427.661Z"/><path fill="#064007" transform="matrix(3.90625 0 0 3.90625 0 0.00012207)" d="M591.311 482.75L590.757 481.404C591.561 475.993 597.172 463.624 599.646 458.222L601.152 458.003C598.697 465.496 596.052 472.599 593.291 479.989C592.471 481.394 592.393 481.554 591.311 482.75Z"/><path fill="#010C01" transform="matrix(3.90625 0 0 3.90625 0 0.00012207)" d="M607.493 443.252C605.936 448.105 602.876 452.698 601.152 458.003L599.646 458.222L602.061 451.732C595.328 457.17 589.687 464.345 583.059 469.899C584.282 467.85 604.468 446.508 607.493 443.252Z"/><path fill="#0B6E15" transform="matrix(3.90625 0 0 3.90625 0 0.00012207)" d="M644.281 573.668L645.376 575.467C648.292 574.913 651.031 566.74 653.677 563.857C652.574 567.765 646.572 579.29 644.422 583.464C643.346 580.106 642.552 577.391 641.709 573.97L643.687 574.518L644.281 573.668Z"/><path fill="#064007" transform="matrix(3.90625 0 0 3.90625 0 0.00012207)" d="M514.195 377.884C516.547 380.204 519.302 384.993 520.974 387.983L520.223 390.615C517.903 386.848 515.899 381.996 514.195 377.884Z"/><path fill="#3DB641" transform="matrix(3.90625 0 0 3.90625 0 0.00012207)" d="M543.18 365.501C546.707 362.364 549.888 358.859 552.67 355.046C572.936 360.919 591.8 369.246 611.199 377.413C612.328 377.889 614.069 378.432 615.3 378.288C613.338 377.222 613.281 377.619 612.553 376.012C612.867 374.066 613.051 373.784 613.883 371.954C614.145 374.767 615.325 378.602 618.535 379.182C620.222 378.532 619.504 379.032 620.675 377.508L621.15 378.576C621.41 381.487 621.976 383.05 623.422 385.641C628.361 388.123 639.207 393.117 642.967 396.679C653.866 411.155 663.025 426.863 670.256 443.479C692.834 495.154 694.12 541.716 673.552 594.265C675.043 580.527 674.411 558.38 672.862 544.342C667.317 496.275 641.767 450.492 609.129 415.466C594.318 399.571 573.781 385.671 556.013 373.308C552.99 371.205 545.187 367.44 543.18 365.501Z"/><path fill="#0B6E15" transform="matrix(3.90625 0 0 3.90625 0 0.00012207)" d="M316.891 274.244C328.222 274.855 340.515 276.526 351.007 277C353.418 277.667 355.042 277.847 357.488 278.163C371.648 281.643 384.044 284.088 397.994 288.94C404.761 291.294 412.143 294.401 418.684 296.488C417.73 301.629 417.376 306.332 418.48 311.523L419.097 307.794C419.317 309.057 419.982 312.316 420.067 313.428C419.255 316.071 420.318 318.324 421.246 320.989C419.344 326.201 434.503 338.166 438.58 340.982L439.946 341.051C438.217 341.626 436.999 342.128 435.169 342.3C430.927 340.794 363.105 358.121 352.707 360.542C350.999 356.203 349.046 344.979 346.891 341.601C346.07 342.885 344.254 361.135 343.348 365.104C341.049 365.699 338.598 366.384 336.292 366.886C326.354 368.99 296.821 378.277 290.064 377.684C284.521 373.905 283.381 352.378 282.74 345.677C280.452 355.771 276.078 376.694 270.684 384.535C258.169 389.071 235.227 394.836 222.225 397.244C225.794 390.067 229.871 383.797 233.708 376.854C225.167 384.571 213.075 396.386 203.413 402.472C188.06 412.141 169.115 425.475 152.946 433.221C153.881 430.681 154.8 428.135 155.704 425.584C156.746 419.231 160.138 412.486 162.413 406.296C185.704 342.915 235.348 291.103 302.926 277.08C307.304 276.172 312.171 275.501 316.392 274.381L316.891 274.244Z"/><path fill="#3DB641" transform="matrix(3.90625 0 0 3.90625 0 0.00012207)" d="M316.891 274.244C328.222 274.855 340.515 276.526 351.007 277C353.418 277.667 355.042 277.847 357.488 278.163C371.648 281.643 384.044 284.088 397.994 288.94C404.761 291.294 412.143 294.401 418.684 296.488C417.73 301.629 417.376 306.332 418.48 311.523L418.346 313.228C416.97 313.822 393.829 310.739 389.915 310.355C306.653 302.195 227.969 334.287 175.362 399.657C173.522 401.944 155.937 425.42 155.704 425.584C156.746 419.231 160.138 412.486 162.413 406.296C185.704 342.915 235.348 291.103 302.926 277.08C307.304 276.172 312.171 275.501 316.392 274.381L316.891 274.244Z"/><path fill="#0B9E02" transform="matrix(3.90625 0 0 3.90625 0 0.00012207)" d="M358.838 315.216C371.616 314.835 384.404 314.898 397.179 315.404C400.315 315.541 417.701 316.225 418.96 317.601C416.657 318.965 409.869 318.579 406.93 318.602C378.707 318.818 349.811 320.531 321.874 324.689C303.772 327.353 286.43 332.572 267.76 335.411C286.241 326.421 310.723 319.936 331.155 316.987C339.487 315.784 350.461 315.505 358.838 315.216Z"/><path fill="#064007" transform="matrix(3.90625 0 0 3.90625 0 0.00012207)" d="M241.106 366.861L241.413 366.977L241.629 367.511C239.728 370.921 237.179 374.314 234.892 377.515L234.596 377.503L234.339 376.892C236.771 372.746 238.027 370.469 241.106 366.861Z"/><defs><linearGradient id="gradient_1" gradientUnits="userSpaceOnUse" x1="477.90912" y1="1030.7944" x2="454.86163" y2="929.61395"><stop offset="0" stop-color="#F48F35"/><stop offset="1" stop-color="#F5BD65"/></linearGradient></defs><path fill="url(#gradient_1)" transform="matrix(3.90625 0 0 3.90625 0 0.00012207)" d="M442.312 939.436C459.395 937.25 479.562 937.581 496.832 937.499C502.654 937.471 508.626 938.544 514.788 938.403C520.013 938.91 523.477 939.31 528.701 938.632C533.019 940.691 554.213 941.476 560.701 942.07L564.181 942.155C571.082 942.465 579.558 944.004 586.469 945.001C623.922 950.402 661.312 958.659 696.61 972.499C699.771 973.74 708.189 977.28 709.728 980.355C708.666 986.8 667.776 990.095 661.542 990.573C626.6 995.237 589.959 995.911 554.75 996.652C486.959 998.402 419.122 996.599 351.519 991.252C330.099 989.513 293.09 986.806 273.691 979.321C277.762 976.564 285.788 973.431 290.647 971.506C326.605 957.262 365.588 948.099 403.893 943.334C411.286 942.414 421.048 940.899 428.248 940.501C430.101 940.131 436.519 939.786 438.907 939.555L442.312 939.436Z"/><path fill="#DE7838" transform="matrix(3.90625 0 0 3.90625 0 0.00012207)" d="M442.312 939.436C459.395 937.25 479.562 937.581 496.832 937.499C502.654 937.471 508.626 938.544 514.788 938.403C520.013 938.91 523.477 939.31 528.701 938.632C533.019 940.691 554.213 941.476 560.701 942.07L564.181 942.155C571.082 942.465 579.558 944.004 586.469 945.001C623.922 950.402 661.312 958.659 696.61 972.499C699.771 973.74 708.189 977.28 709.728 980.355C708.666 986.8 667.776 990.095 661.542 990.573C656.93 986.499 645.567 981.016 639.753 978.302C611.726 965.219 583.652 954.514 553.5 947.404C535.581 943.179 519.594 938.789 500.759 938.626C491.432 938.545 478.225 938.896 469.206 938.557C461.836 938.28 432.704 941.967 428.248 940.501C430.101 940.131 436.519 939.786 438.907 939.555L442.312 939.436Z"/><defs><linearGradient id="gradient_2" gradientUnits="userSpaceOnUse" x1="430.40012" y1="661.87994" x2="496.87082" y2="555.61469"><stop offset="0" stop-color="#500"/><stop offset="1" stop-color="#9A3F1E"/></linearGradient></defs><path fill="url(#gradient_2)" transform="matrix(3.90625 0 0 3.90625 0 0.00012207)" d="M444.965 475.887C447.265 476.203 448.666 477.202 450.711 478.33C453.639 479.537 455.98 480.49 459.001 481.467C464.076 482.987 469.166 484.456 474.271 485.873C479.972 487.551 484.099 489.157 489.597 491.103C487.611 505.995 484.775 525.609 484.06 540.635L483.73 545.922C482.086 570.129 481.613 594.401 482.312 618.654C482.967 636.227 484.615 654.597 485.737 672.15L485.429 673.162C484.205 671.851 485.044 664.252 483.369 661.235C476.985 661.551 470.73 661.849 464.339 662.013C460.209 662.119 454.602 661.726 450.722 662.043C437.832 661.426 432.718 660.53 420.588 656.925L420.435 656.673C418.786 656.188 417.43 655.813 415.755 655.433C414.575 657.947 414.719 669.927 414.465 673.86L414.168 672.72L414.234 672.992C414.154 671.738 414.092 670.016 413.943 668.81C413.704 664.376 415.087 648.358 415.656 643.569C417.353 629.283 418.265 610.297 420.94 596.429C421.566 591.361 422.858 579.805 424.344 575.113C424.602 571.09 426.1 563.546 426.829 559.382L431.731 531.82L433.164 524.076C436.225 508.414 440.918 491.452 444.965 475.887Z"/><path fill="#B5531F" transform="matrix(3.90625 0 0 3.90625 0 0.00012207)" d="M444.965 475.887C447.265 476.203 448.666 477.202 450.711 478.33C453.639 479.537 455.98 480.49 459.001 481.467C464.076 482.987 469.166 484.456 474.271 485.873C479.972 487.551 484.099 489.157 489.597 491.103C487.611 505.995 484.775 525.609 484.06 540.635C478.417 539.051 471.645 537.587 465.847 536.149C460.567 534.393 454.447 533.03 448.837 531.205L448.436 530.863L439.287 527.648C437.007 526.563 434.972 525.808 433.164 524.076C436.225 508.414 440.918 491.452 444.965 475.887Z"/><path fill="#933618" transform="matrix(3.90625 0 0 3.90625 0 0.00012207)" d="M474.271 485.873C479.972 487.551 484.099 489.157 489.597 491.103C487.611 505.995 484.775 525.609 484.06 540.635C478.417 539.051 471.645 537.587 465.847 536.149C467.01 523.458 471.873 499.093 474.271 485.873Z"/><path fill="#DE7838" transform="matrix(3.90625 0 0 3.90625 0 0.00012207)" d="M444.965 475.887C447.265 476.203 448.666 477.202 450.711 478.33C453.639 479.537 455.98 480.49 459.001 481.467C458.321 488.038 454.296 502.149 452.72 509.308C451.54 514.667 449.751 526.304 448.436 530.863L439.287 527.648C437.007 526.563 434.972 525.808 433.164 524.076C436.225 508.414 440.918 491.452 444.965 475.887Z"/><path fill="#A2421B" transform="matrix(3.90625 0 0 3.90625 0 0.00012207)" d="M444.965 475.887C447.265 476.203 448.666 477.202 450.711 478.33C447.446 490.185 444.529 502.134 441.964 514.16C441.278 517.382 439.567 524.687 439.287 527.648C437.007 526.563 434.972 525.808 433.164 524.076C436.225 508.414 440.918 491.452 444.965 475.887Z"/><path fill="#B5531F" transform="matrix(3.90625 0 0 3.90625 0 0.00012207)" d="M420.94 596.429C421.84 595.082 421.565 594.131 422.998 593.344L423.864 593.773C438.49 600.108 446.471 599.086 460.075 601.841C459.365 619.696 459.17 637.568 459.489 655.435C456.223 655.446 450.896 655.302 447.791 655.58C441.251 655.635 435.473 655.027 429.065 653.89L424.24 652.954L423.888 652.967C421.937 652.903 421.02 652.48 419.819 653.389C419.968 654.368 420.357 655.915 420.435 656.673C418.786 656.188 417.43 655.813 415.755 655.433C414.575 657.947 414.719 669.927 414.465 673.86L414.168 672.72L414.234 672.992C414.154 671.738 414.092 670.016 413.943 668.81C413.704 664.376 415.087 648.358 415.656 643.569C417.353 629.283 418.265 610.297 420.94 596.429Z"/><path fill="#DE7838" transform="matrix(3.90625 0 0 3.90625 0 0.00012207)" d="M427.577 602.301L436.275 603.776C435.514 609.451 430.302 652.309 429.065 653.89L424.24 652.954C423.591 647.377 424.962 633.972 425.479 627.774C426.153 619.694 426.659 610.239 427.577 602.301Z"/><path fill="#933618" transform="matrix(3.90625 0 0 3.90625 0 0.00012207)" d="M420.94 596.429C421.84 595.082 421.565 594.131 422.998 593.344L423.864 593.773C421.459 595.684 423.568 602.12 421.852 604.452C421.79 603.766 421.557 600.763 421.421 600.274L421.347 601.192C420.948 605.636 419.977 610.36 419.656 615.129C419.324 620.058 418.333 624.832 418.034 629.97L418.385 630.388C418.622 628.024 418.827 625.657 418.998 623.287L419.51 623.569C419.597 626.482 419.285 632.325 418.437 635.047L418.027 634.92C418.029 633.576 418.165 632.312 417.801 631.074C417.944 636.073 418.463 642.586 417.621 647.384C416.633 653.013 418.84 650.997 423.888 652.967C421.937 652.903 421.02 652.48 419.819 653.389C419.968 654.368 420.357 655.915 420.435 656.673C418.786 656.188 417.43 655.813 415.755 655.433C414.575 657.947 414.719 669.927 414.465 673.86L414.168 672.72L414.234 672.992C414.154 671.738 414.092 670.016 413.943 668.81C413.704 664.376 415.087 648.358 415.656 643.569C417.353 629.283 418.265 610.297 420.94 596.429Z"/><path fill="#B5531F" transform="matrix(3.90625 0 0 3.90625 0 0.00012207)" d="M433.164 524.076C434.972 525.808 437.007 526.563 439.287 527.648L448.436 530.863L448.837 531.205C454.447 533.03 460.567 534.393 465.847 536.149C471.645 537.587 478.417 539.051 484.06 540.635L483.73 545.922C481.499 544.984 467.953 542.333 464.919 541.692C463.459 553.519 462.289 565.38 461.411 577.264C460.982 582.784 460.777 589.515 460.192 594.863C452.533 593.887 445.558 592.306 438.3 591.311C435.868 590.636 432.985 590.011 430.498 589.415C427.803 588.802 425.939 587.893 423.42 586.809C423.827 583.68 424.804 577.964 424.344 575.113C424.602 571.09 426.1 563.546 426.829 559.382L431.731 531.82L433.164 524.076Z"/><path fill="#DE7838" transform="matrix(3.90625 0 0 3.90625 0 0.00012207)" d="M431.731 531.82C433.702 531.246 434.324 531.423 436.099 532.586C433.882 532.373 434.094 532.023 432.568 532.936C432.237 534.418 432.225 533.945 432.344 535.407C435.715 536.695 439.227 538.098 442.621 539.275L442.42 539.681C444.06 540.135 445.181 540.433 446.852 540.729C443.336 558.409 440.909 573.413 438.3 591.311C435.868 590.636 432.985 590.011 430.498 589.415C427.803 588.802 425.939 587.893 423.42 586.809C423.827 583.68 424.804 577.964 424.344 575.113C424.602 571.09 426.1 563.546 426.829 559.382L431.731 531.82Z"/><path fill="#A2421B" transform="matrix(3.90625 0 0 3.90625 0 0.00012207)" d="M431.731 531.82C433.702 531.246 434.324 531.423 436.099 532.586C433.882 532.373 434.094 532.023 432.568 532.936C432.237 534.418 432.225 533.945 432.344 535.407C435.715 536.695 439.227 538.098 442.621 539.275L442.42 539.681C440.665 539.333 439.082 539.017 437.35 538.575C435.942 545.406 427.839 585.196 430.498 589.415C427.803 588.802 425.939 587.893 423.42 586.809C423.827 583.68 424.804 577.964 424.344 575.113C424.602 571.09 426.1 563.546 426.829 559.382L431.731 531.82Z"/><path fill="#5C1002" transform="matrix(3.90625 0 0 3.90625 0 0.00012207)" d="M448.837 531.205C454.447 533.03 460.567 534.393 465.847 536.149C471.645 537.587 478.417 539.051 484.06 540.635L483.73 545.922C481.499 544.984 467.953 542.333 464.919 541.692C458.701 540.196 453.328 538.869 447.22 536.981C448.456 534.559 448.416 533.97 448.837 531.205Z"/><path fill="#732012" transform="matrix(3.90625 0 0 3.90625 0 0.00012207)" d="M433.164 524.076C434.972 525.808 437.007 526.563 439.287 527.648L448.436 530.863L448.837 531.205C448.416 533.97 448.456 534.559 447.22 536.981C442.966 535.529 440.075 534.592 436.099 532.586C434.324 531.423 433.702 531.246 431.731 531.82L433.164 524.076Z"/><path fill="#933618" transform="matrix(3.90625 0 0 3.90625 0 0.00012207)" d="M460.075 601.841C466.349 602.425 472.635 602.869 478.929 603.173C478.877 621.114 480.46 636.834 481.563 654.44C477.409 654.673 462.429 655.236 459.131 655.882C455.182 655.912 451.717 656.006 447.791 655.58C450.896 655.302 456.223 655.446 459.489 655.435C459.17 637.568 459.365 619.696 460.075 601.841Z"/><path fill="#5C1002" transform="matrix(3.90625 0 0 3.90625 0 0.00012207)" d="M459.131 655.882C460.757 656.005 462.777 655.899 464.008 656.661L464.416 656.332L464.5 656.894C463.486 657.898 463.963 657.67 462.664 658.016L462.549 658.198C461.991 660.193 462.566 659.664 461.269 660.451C459.57 659.279 459.428 657.764 459.131 655.882Z"/><path fill="#3DB641" transform="matrix(3.90625 0 0 3.90625 0 0.00012207)" d="M470.256 317.887C474.282 297.989 492.534 280.977 513.703 284.107C524.571 284.461 530.001 285.534 539.349 291.664C540.326 292.428 544.295 295.655 545.107 296.125C547.715 296.521 548.258 297.712 550.1 300.016C555.827 306.554 557.352 309.924 559.663 318.166C572.96 317.424 587.196 314.027 600.253 311.167C597.635 305.95 594.275 299.795 592.421 294.371C596.014 298.2 599.055 307.407 601.851 311.303L602.32 312.489C602.72 313.464 603.285 314.28 603.088 315.093C602.37 314.324 601.606 313.466 600.865 312.732C587.768 314.741 572.645 319.114 559.834 319.965C560.163 323.644 560.639 327.812 560.602 331.46C560.434 332.921 560.285 334.502 560.042 335.94C558.246 343.022 557.019 347.852 553.218 354.1C569.807 359.051 594.822 368.08 610.681 375.827C612.584 367.263 616.055 359.146 617.694 351.144C619.319 357.062 619.695 361.213 620.708 367.14C620.058 368.775 621.505 375.229 621.505 378.502L621.15 378.576L620.675 377.508C620.112 374.7 619.792 367.257 618.053 365.584L617.135 365.77C614.978 367.776 614.875 369.086 613.883 371.954C613.051 373.784 612.867 374.066 612.553 376.012C613.281 377.619 613.338 377.222 615.3 378.288C614.069 378.432 612.328 377.889 611.199 377.413C591.8 369.246 572.936 360.919 552.67 355.046C549.888 358.859 546.707 362.364 543.18 365.501C542.007 366.351 539.685 367.925 538.73 368.851C530.147 373.664 523.386 375.005 513.55 375.913L513.891 374.679C502.659 373.768 493.454 371.587 484.604 364.558C484.403 364.308 482.981 363.413 482.616 363.171C482.579 363.11 479.576 359.755 479.208 359.324C475.579 355.077 474.047 352.595 471.84 347.542C467.705 336.027 466.749 330.103 470.256 317.887Z"/><path fill="#4CEA19" transform="matrix(3.90625 0 0 3.90625 0 0.00012207)" d="M470.256 317.887C474.282 297.989 492.534 280.977 513.703 284.107C520.743 285.619 527.316 291.606 531.256 297.488C542.352 314.053 536.077 334.158 519.563 344.463C511.445 349.616 501.616 351.339 492.23 349.255C480.951 346.651 473.558 337.829 471.491 326.745C470.978 323.996 471.097 320.361 470.256 317.887Z"/><path fill="#88E86F" transform="matrix(3.90625 0 0 3.90625 0 0.00012207)" d="M504.776 301.147C506.72 301.164 509.573 301.308 511.376 301.932C514.586 303.057 517.178 305.475 518.524 308.598C522.165 317.046 516.534 324.942 508.667 328.118C502.135 328.983 496.426 326.974 494.073 320.324C492.734 316.464 493.005 312.228 494.824 308.569C497.089 304.123 500.272 302.53 504.776 301.147Z"/><path fill="#88E86F" transform="matrix(3.90625 0 0 3.90625 0 0.00012207)" d="M489.826 293.484C491.725 293.613 492.144 293.836 492.52 295.524C491.206 298.239 489.411 299.106 486.71 300.281C484.484 299.925 484.823 300.35 483.746 299.021L483.895 297.774C485.565 295.303 487.057 294.439 489.826 293.484Z"/><path fill="#88E86F" transform="matrix(3.90625 0 0 3.90625 0 0.00012207)" d="M502.203 288.476C503.441 288.597 504.458 289.162 505.482 289.799L505.427 291.006C503.379 292.878 502.296 292.945 499.627 293.682C498.808 293.783 497.78 293.693 496.932 293.661L495.834 292.446L496.164 291.474C498.058 289.424 499.563 289.233 502.203 288.476Z"/><path fill="#011701" transform="matrix(3.90625 0 0 3.90625 0 0.00012207)" d="M592.421 294.371C596.014 298.2 599.055 307.407 601.851 311.303L602.32 312.489C602.72 313.464 603.285 314.28 603.088 315.093C602.37 314.324 601.606 313.466 600.865 312.732C587.768 314.741 572.645 319.114 559.834 319.965C560.163 323.644 560.639 327.812 560.602 331.46C560.434 332.921 560.285 334.502 560.042 335.94C558.246 343.022 557.019 347.852 553.218 354.1C569.807 359.051 594.822 368.08 610.681 375.827C612.584 367.263 616.055 359.146 617.694 351.144C619.319 357.062 619.695 361.213 620.708 367.14C620.058 368.775 621.505 375.229 621.505 378.502L621.15 378.576L620.675 377.508C620.112 374.7 619.792 367.257 618.053 365.584L617.135 365.77C614.978 367.776 614.875 369.086 613.883 371.954C613.051 373.784 612.867 374.066 612.553 376.012C613.281 377.619 613.338 377.222 615.3 378.288C614.069 378.432 612.328 377.889 611.199 377.413C591.8 369.246 572.936 360.919 552.67 355.046C549.888 358.859 546.707 362.364 543.18 365.501C542.007 366.351 539.685 367.925 538.73 368.851C530.147 373.664 523.386 375.005 513.55 375.913L513.891 374.679C525.132 374.405 536.722 369.906 544.954 362.185C553.697 354.052 558.828 342.762 559.206 330.827C559.625 315.619 555.291 306.79 545.107 296.125C547.715 296.521 548.258 297.712 550.1 300.016C555.827 306.554 557.352 309.924 559.663 318.166C572.96 317.424 587.196 314.027 600.253 311.167C597.635 305.95 594.275 299.795 592.421 294.371Z"/><path fill="#5C1002" transform="matrix(3.90625 0 0 3.90625 0 0.00012207)" d="M484.604 364.558C493.454 371.587 502.659 373.768 513.891 374.679L513.55 375.913L513.387 376.397C509.501 389.221 507.911 405.27 503.854 418.354C502.455 423.639 501.186 428.958 500.048 434.305L498.569 440.675C493.314 440.045 488.158 438.624 483.069 437.222C483.439 434.457 483.682 432.599 484.383 429.856L484.284 429.569L475.604 426.85C472.55 425.834 470.154 424.984 467.177 423.754L466.383 423.485L464.184 422.566C463.219 421.02 463.475 421.911 463.952 419.666L462.436 420.624C467.308 406.893 477.556 385.269 482.536 370.745C482.409 370.257 482.283 369.768 482.157 369.28C483.146 368.813 484.082 365.838 484.604 364.558Z"/><path fill="#A2421B" transform="matrix(3.90625 0 0 3.90625 0 0.00012207)" d="M487.612 413.036C490.546 413.852 502.188 416.716 503.854 418.354C502.455 423.639 501.186 428.958 500.048 434.305L498.569 440.675C493.314 440.045 488.158 438.624 483.069 437.222C483.439 434.457 483.682 432.599 484.383 429.856L484.284 429.569C485.371 425.644 486.65 417.48 487.612 413.036Z"/><path fill="#5C1002" transform="matrix(3.90625 0 0 3.90625 0 0.00012207)" d="M484.383 429.856C488.855 431.197 495.638 433.452 500.048 434.305L498.569 440.675C493.314 440.045 488.158 438.624 483.069 437.222C483.439 434.457 483.682 432.599 484.383 429.856Z"/><path fill="#DE7838" transform="matrix(3.90625 0 0 3.90625 0 0.00012207)" d="M472.85 409.087C475.519 409.187 478.642 409.714 481.147 410.679L487.612 413.036C486.65 417.48 485.371 425.644 484.284 429.569L475.604 426.85C472.55 425.834 470.154 424.984 467.177 423.754C468.755 420.927 471.622 412.482 472.85 409.087Z"/><path fill="#B5531F" transform="matrix(3.90625 0 0 3.90625 0 0.00012207)" d="M481.147 410.679L487.612 413.036C486.65 417.48 485.371 425.644 484.284 429.569L475.604 426.85C476.273 426.236 480.366 412.732 481.147 410.679Z"/><path fill="#B5531F" transform="matrix(3.90625 0 0 3.90625 0 0.00012207)" d="M467.517 409.247C469.294 409.179 471.072 409.126 472.85 409.087C471.622 412.482 468.755 420.927 467.177 423.754L466.383 423.485L464.184 422.566C463.219 421.02 463.475 421.911 463.952 419.666C465.273 416.399 466.415 412.629 467.517 409.247Z"/><path fill="#933618" transform="matrix(3.90625 0 0 3.90625 0 0.00012207)" d="M460.349 426.436C462.054 427.558 463.801 428.615 465.585 429.605L465.487 429.852C468.018 431.036 470.798 432.436 473.406 433.361C475.808 434.337 481.075 436.221 483.069 437.222C488.158 438.624 493.314 440.045 498.569 440.675L492.713 470.961C491.599 477.663 490.56 484.377 489.597 491.103C484.099 489.157 479.972 487.551 474.271 485.873C469.166 484.456 464.076 482.987 459.001 481.467C459.131 479.678 459.594 478.018 459.789 476.048L459.201 475.632L451.482 472.527C447.845 470.922 447.569 471.313 447.296 467.603C451.316 453.509 455.723 440.358 460.349 426.436Z"/><path fill="#DE7838" transform="matrix(3.90625 0 0 3.90625 0 0.00012207)" d="M460.349 426.436C462.054 427.558 463.801 428.615 465.585 429.605L465.487 429.852C468.018 431.036 470.798 432.436 473.406 433.361C469.694 446.736 464.872 460.065 461.088 473.456C460.77 474.58 460.31 475.256 459.201 475.632L451.482 472.527C447.845 470.922 447.569 471.313 447.296 467.603C451.316 453.509 455.723 440.358 460.349 426.436Z"/><path fill="#B5531F" transform="matrix(3.90625 0 0 3.90625 0 0.00012207)" d="M460.349 426.436C462.054 427.558 463.801 428.615 465.585 429.605L465.487 429.852C463.131 432.524 452.82 466.95 451.482 472.527C447.845 470.922 447.569 471.313 447.296 467.603C451.316 453.509 455.723 440.358 460.349 426.436Z"/><path fill="#B5531F" transform="matrix(3.90625 0 0 3.90625 0 0.00012207)" d="M473.406 433.361C475.808 434.337 481.075 436.221 483.069 437.222C480.32 451.068 478.06 467.198 475.106 480.594C471.845 479.318 463.33 476.985 459.789 476.048L459.201 475.632C460.31 475.256 460.77 474.58 461.088 473.456C464.872 460.065 469.694 446.736 473.406 433.361Z"/><defs><linearGradient id="gradient_3" gradientUnits="userSpaceOnUse" x1="479.96078" y1="467.46045" x2="473.33652" y2="485.56314"><stop offset="0" stop-color="#7F2E0E"/><stop offset="1" stop-color="#611302"/></linearGradient></defs><path fill="url(#gradient_3)" transform="matrix(3.90625 0 0 3.90625 0 0.00012207)" d="M488.006 483.555C488.886 480.048 489.409 475.293 490.811 471.975C491.174 471.117 491.506 471.307 492.713 470.961C491.599 477.663 490.56 484.377 489.597 491.103C484.099 489.157 479.972 487.551 474.271 485.873C469.166 484.456 464.076 482.987 459.001 481.467C459.131 479.678 459.594 478.018 459.789 476.048C463.33 476.985 471.845 479.318 475.106 480.594C478.078 481.506 484.566 482.737 488.006 483.555Z"/><path fill="#732012" transform="matrix(3.90625 0 0 3.90625 0 0.00012207)" d="M466.383 423.485L467.177 423.754C470.154 424.984 472.55 425.834 475.604 426.85L484.284 429.569L484.383 429.856C483.682 432.599 483.439 434.457 483.069 437.222C481.075 436.221 475.808 434.337 473.406 433.361C470.798 432.436 468.018 431.036 465.487 429.852L465.585 429.605C466.472 426.965 466.356 426.256 466.383 423.485Z"/><path fill="#732012" transform="matrix(3.90625 0 0 3.90625 0 0.00012207)" d="M447.296 467.603C447.569 471.313 447.845 470.922 451.482 472.527L459.201 475.632L459.789 476.048C459.594 478.018 459.131 479.678 459.001 481.467C455.98 480.49 453.639 479.537 450.711 478.33C448.666 477.202 447.265 476.203 444.965 475.887C445.617 474.235 446.775 469.531 447.296 467.603Z"/><path fill="#FEECF9" fill-opacity="0.76862746" transform="matrix(3.90625 0 0 3.90625 0 0.00012207)" d="M592.289 128.712C597.899 127.834 604.742 125.474 610.327 125.141L609.14 126.902L609.457 127.728C610.863 128.026 611.572 128.14 613.001 128.284C609.094 129.279 594.334 129.95 590.567 129.256L592.289 128.712Z"/><path fill="#FEECF9" fill-opacity="0.0078431377" transform="matrix(3.90625 0 0 3.90625 0 0.00012207)" d="M351.007 277C355.085 273.332 359.42 269.961 363.979 266.912C362.107 269.917 358.741 275.06 357.488 278.163C355.042 277.847 353.418 277.667 351.007 277Z"/><path fill="#732012" transform="matrix(3.90625 0 0 3.90625 0 0.00012207)" d="M463.952 419.666C463.475 421.911 463.219 421.02 464.184 422.566L466.383 423.485C466.356 426.256 466.472 426.965 465.585 429.605C463.801 428.615 462.054 427.558 460.349 426.436C460.893 424.591 461.754 422.455 462.436 420.624L463.952 419.666Z"/></svg>