<svg id="Layer_1" data-name="Layer 1" xmlns="http://www.w3.org/2000/svg" viewBox="0 0 1024 1024"><defs><style>.cls-1{fill:#f55455;}.cls-2{fill:#c4201d;}.cls-3{fill:#fc999c;}.cls-4{fill:#f5504d;}.cls-5{fill:#802204;}.cls-6{fill:#f5514f;}.cls-7{fill:#f5a349;}.cls-8{fill:#f7a12b;}.cls-9{fill:#fdd557;}.cls-10{fill:#fdcf3d;}.cls-11{fill:#fbcbaa;}.cls-12{fill:#f39f55;}.cls-13{fill:#c16f15;}.cls-14{fill:#026584;}.cls-15{fill:#52bad3;}.cls-16{fill:#fce8b1;}.cls-17{fill:#fcbf15;}.cls-18{fill:#fcd04f;}.cls-19{fill:#eca400;}.cls-20{fill:#a2dbed;}.cls-21{fill:#2ca6c0;}.cls-22{fill:#52bbd4;}.cls-23{fill:#037e95;}</style></defs><path class="cls-1" d="M510,111c-50.67,62.47-84.61,142-99,221a37,37,0,0,0-2,5l-15,17c15.51-91.93,53.06-182.67,117-251C512,105.25,510,110,510,111Z"/><path class="cls-2" d="M628,355l-12-13c-.65-2-.88-4.16-2-6-14.68-81.19-47.84-160.3-100.5-224-2.52,0-1.32,3.41-1.5,5h-1c0-2.56-1-5.06-1-6s2-5.75,1-8C576.56,170.67,612.41,262.84,628,355Z"/><path class="cls-3" d="M511,117c0,3.83-.95,8-1,11-41.42,55.45-69.48,120.81-86,188-.3.44-.7,1.56-1,2-2.74,3.94-10.09,10.35-12,14,14.39-79,48.33-158.53,99-221C510,111.94,511,114.44,511,117Z"/><path class="cls-4" d="M614,336,512,197c.13-22.73-2.36-59.27,0-80,.18-1.59-1-5,1.5-5C566.16,175.7,599.32,254.81,614,336Z"/><path class="cls-5" d="M512,197c-.14,25.65.07,51.35,0,77-.06,24.32,0,48.68,0,73h-2c3.8-22.92.87-49.68,1-73,.14-25.62-.95-51.4-1-77-.05-22.89-.4-46.15,0-69,.05-3,1-7.17,1-11h1C509.64,137.73,512.13,174.27,512,197Z"/><path class="cls-6" d="M510,197c-28.57,39.66-58.1,78.86-86,119,16.52-67.19,44.58-132.55,86-188C509.6,150.85,510,174.11,510,197Z"/><path class="cls-7" d="M511,274,406,443c2.05-42.19,7.28-84,17-125,.3-.44.7-1.56,1-2,27.9-40.14,57.43-79.34,86-119C510.05,222.6,511.14,248.38,511,274Z"/><path class="cls-8" d="M614,336c1.12,1.84,1.35,4,2,6,3.83,11.83,6.63,37.4,8,50.5,2.33,22.29,2.88,45.12,3,67.5-2.74-4-6.4-8-9-12-36.83-56.95-68.69-117.32-106-174,.07-25.65-.14-51.35,0-77Z"/><path class="cls-9" d="M511,274c-.13,23.32,2.8,50.08-1,73-.29,1.75.48,3.24-1,5-33.12,83-67.68,165.57-97,250-7.37-52.48-8.58-106-6-159Z"/><path class="cls-10" d="M618,448c.07,46.68.28,97.24-6,143.5-.29,2.16-1,6-4,6.5-27.64-84.46-62.18-166.94-96-249v-2c0-24.32-.06-48.68,0-73C549.31,330.68,581.17,391.05,618,448Z"/><path class="cls-11" d="M406,443c-2.5,5.59-6.87,10-10,15,.41-20.11.93-40.5,3-60.5,1.58-15.24,5.17-46.94,10-60.5a37,37,0,0,1,2-5c1.91-3.65,9.26-10.06,12-14C413.28,359,408.05,400.81,406,443Z"/><path class="cls-12" d="M396,458c-.18.29.13,2.29-1,4-3,4.52-6.67,8.73-10,13,.34-40.68,2.23-80.86,9-121l15-17c-4.83,13.56-8.42,45.26-10,60.5C396.93,417.5,396.41,437.89,396,458Z"/><path class="cls-13" d="M628,355c6.88,40.65,9.76,78.69,10,120-3.88-3.84-6.91-8.54-10-13-.31-.44-.69-1.55-1-2-.12-22.38-.67-45.21-3-67.5-1.37-13.1-4.17-38.67-8-50.5Z"/><path class="cls-14" d="M512,347v2c-.23,169.15.18,338.34,0,507.5.69,2.37,26.82,20.55,31,23.5,1.7,1.2,4,2,5,4-.07,0,.16,1.18-1,1-4.75-6.49-28.28-17.25-34.5-25-5.73-.9-27.74,23.84-37.5,24,1.9-.61,3.7-3,5-4l31-23.5v-496l-2-8.5c1.48-1.76.71-3.25,1-5Z"/><path class="cls-15" d="M608,598c1.46,4.46,1.6,9.55,3,14-6.41,27.88-8.57,57.16-14,85.5A971.3,971.3,0,0,1,543,880c-4.18-3-30.31-21.13-31-23.5.18-169.16-.23-338.35,0-507.5C545.82,431.06,580.36,513.54,608,598Z"/><path class="cls-15" d="M480,880c-36.27-87.31-55.65-180.49-69-274,.32-.93.45-2.41,1-4,29.32-84.43,63.88-167,97-250l2,8.5v496Z"/><path class="cls-16" d="M406,443c-2.58,53-1.37,106.52,6,159-.55,1.59-.68,3.07-1,4-2,5.63-5,11.33-7,17-6.78-53.32-9.05-107.24-9-161,1.13-1.71.82-3.71,1-4C399.13,453,403.5,448.59,406,443Z"/><path class="cls-17" d="M627,460c.31.45.69,1.56,1,2-1.27,54.33-1.72,109.57-12,163-1.42-4.31-3.62-8.62-5-13s-1.54-9.54-3-14c3-.55,3.71-4.34,4-6.5,6.28-46.26,6.07-96.82,6-143.5C620.6,452,624.26,456,627,460Z"/><path class="cls-18" d="M404,623c.08.64-.08,1.36,0,2l-6,17c-8.81-57.63-13.49-108.45-13-167,3.33-4.27,7-8.48,10-13C395,515.76,397.22,569.68,404,623Z"/><path class="cls-19" d="M638,475c.32,56-3.37,113.21-14,168-.5-3.33-4.75-10.4-6-14-.47-1.34-1.56-2.66-2-4,10.28-53.43,10.73-108.67,12-163C631.09,466.46,634.12,471.16,638,475Z"/><path class="cls-20" d="M480,880c-1.3,1-3.1,3.39-5,4-.87,0-2.44,2.16-4,.5-31.65-83.36-55.55-170.74-67-259.5-.08-.64.08-1.36,0-2,2-5.67,5-11.37,7-17C424.35,699.51,443.73,792.69,480,880Z"/><path class="cls-21" d="M616,625c.44,1.34,1.53,2.66,2,4-11.67,77.91-28.33,156-57,229.5-1.47,3.76-9.67,24.42-11,26-.88,1-.88-.55-2-.5-1-2-3.3-2.8-5-4a971.3,971.3,0,0,0,54-182.5c5.43-28.34,7.59-57.62,14-85.5C612.38,616.38,614.58,620.69,616,625Z"/><path class="cls-22" d="M475,884c9.76-.16,31.77-24.9,37.5-24,6.22,7.75,29.75,18.51,34.5,25,2.47,3.38,1.47,3-.5,7-5.11-5-30.36-26.21-36-26s-33.29,23.17-36.5,30c-.19.07-2.36,2.48-3.5,2-.5-.17-2.87-4-3.5-5-31.55-50.09-59.69-190.14-69-251l6-17c11.45,88.76,35.35,176.14,67,259.5C472.56,886.16,474.13,884,475,884Z"/><path class="cls-23" d="M624,643c2.53,16.72-18.32,100.48-24,121.5-8.18,30.29-30,104.15-46,128.5-5.59,8.51-4.75,4.19-12,0l-30.5-23c-3.1,0-25.23,19.21-29.5,22a40.14,40.14,0,0,1-8,4c3.21-6.83,31-29.79,36.5-30s30.89,21,36,26c2-4,3-3.62.5-7,1.16.18.93-1,1-1,1.12,0,1.12,1.55,2,.5,1.33-1.58,9.53-22.24,11-26C589.67,785,606.33,706.91,618,629,619.25,632.6,623.5,639.67,624,643Z"/></svg>